<svg width="1440" height="879" viewBox="0 0 1440 879" fill="none" xmlns="http://www.w3.org/2000/svg">
<g opacity="0.2">
<g opacity="0.0323">
<path d="M826.397 -170.794C833.446 -171.9 840.526 -172.806 847.711 -173.471C941.479 -182.334 1040.61 -156.601 1119.73 -102.868C1185.46 -58.1794 1237.74 3.92535 1279.66 86.9664C1290.8 108.946 1301.17 131.971 1311.21 154.224C1347.69 234.936 1385.39 318.382 1466.67 373.11C1488.36 387.733 1512.71 400.141 1536.26 412.16C1572.54 430.707 1610.12 449.871 1637.19 477.004C1700.85 540.917 1690.53 646.847 1613.64 718.13C1545.51 781.261 1432.57 818.812 1311.49 818.506C1297.44 818.502 1282.99 818.048 1269.08 817.612C1222.91 816.128 1175.13 814.639 1132.02 829.725C1093.36 843.292 1062.14 868.067 1031.93 892.018C1016.82 903.993 1001.24 916.35 984.886 927.186C884.408 993.853 737.413 1012.97 610.356 975.903C494.927 942.2 398.791 865.254 346.567 764.724C331.37 735.215 319.785 704.01 308.561 673.827C296.735 641.94 284.541 608.981 267.998 578.143C242.044 529.523 193.219 466.414 108.158 441.708C99.5401 439.208 90.6357 437.011 82.0731 434.862C56.8739 428.546 33.0012 422.586 14.3351 409.748C-12.7995 391.101 -24.1065 358.26 -15.2399 323.999C-8.28215 297.176 9.60743 270.127 41.0836 238.891C120.987 159.584 239.115 105.246 365.403 89.6877C382.923 87.5541 400.887 86.1213 418.256 84.7304C440.714 82.9519 463.962 81.1005 486.233 77.7077C518.67 72.6167 562.112 61.3813 585.561 35.6681C598.971 20.9805 604.899 3.3586 610.578 -13.7109C613.124 -21.352 615.761 -29.2643 619.056 -36.8176C647.524 -102.557 731.046 -155.828 826.397 -170.794ZM1400.44 809.629C1485.54 796.272 1560.94 763.638 1611.37 716.844C1687.44 646.355 1697.69 541.669 1634.75 478.516C1607.92 451.604 1572.23 433.376 1534.43 414.091C1510.8 402.033 1486.44 389.575 1464.61 374.872C1382.81 319.815 1344.99 236.078 1308.41 155.126C1298.36 132.872 1288 109.898 1276.87 87.9684C1235.13 5.20764 1183.08 -56.6772 1117.66 -101.106C1039.14 -154.469 940.773 -180.015 847.723 -171.265C744.861 -161.54 651.871 -105.961 621.563 -36.1839C618.325 -28.6909 615.68 -20.8288 613.127 -13.2378C607.34 4.00252 601.379 21.8352 587.632 36.9351C563.839 63.0106 520.321 74.6172 487.493 79.7696C487.102 79.8311 486.775 79.8823 486.384 79.9438C463.99 83.4072 440.668 85.2188 418.146 87.0076C400.776 88.3984 382.869 89.7708 365.422 91.9443C240.049 107.359 122.476 161.404 43.0973 240.219C11.9082 271.153 -5.82479 297.92 -12.6498 324.312C-21.3 357.82 -10.3069 389.94 16.1536 408.128C34.4462 420.716 58.0421 426.616 83.0299 432.863C91.6576 435.002 100.505 437.259 109.188 439.748C195.087 464.683 244.325 528.292 270.464 577.243C287.031 608.231 299.233 641.24 311.067 673.177C322.218 703.32 333.795 734.475 348.976 763.884C400.983 863.882 496.591 940.449 611.32 973.955C737.532 1010.74 883.417 991.8 983.044 925.678C999.276 914.912 1014.86 902.555 1029.91 890.64C1060.29 866.509 1091.75 841.592 1130.92 827.843C1174.66 812.505 1222.78 814.042 1269.35 815.514C1283.27 815.95 1297.65 816.415 1311.63 816.429C1341.92 816.45 1371.72 814.136 1400.44 809.629Z" fill="#03396C"/>
</g>
<g opacity="0.0645">
<path d="M839.443 -147.778C847.34 -149.017 855.407 -150.027 863.456 -150.725C955.256 -158.919 1051.82 -133.759 1128.33 -81.7234C1192.42 -38.1124 1243.14 22.5432 1283.36 103.694C1293.87 124.642 1303.71 146.465 1313.18 167.578C1348.65 246.186 1385.28 327.439 1462.67 382.06C1482.82 396.307 1504.89 408.662 1526.28 420.557C1561.53 440.191 1594.75 458.808 1619.95 485.154C1679.94 547.846 1668.86 650.248 1594.68 718.283C1528.57 778.939 1418.55 815.518 1300.36 816.195C1287 816.289 1273.37 815.913 1260.14 815.575C1214.82 814.419 1167.96 813.249 1125.84 828.642C1088.46 842.315 1057.52 866.277 1027.53 889.524C1011.67 901.823 995.338 914.504 978.208 925.513C878.281 989.731 733.944 1007.45 610.594 970.577C497.35 936.735 403.434 860.725 352.838 762.045C338.085 733.238 326.806 702.703 315.896 673.241C303.806 640.523 291.266 606.643 273.953 575.155C237.624 509.006 181.515 461.267 115.968 440.739C110.199 438.923 104.446 437.206 98.7664 435.53C71.3283 427.305 45.3709 419.567 26.5701 404.593C2.51086 385.515 -5.78261 353.125 4.87835 320.072C13.1422 294.328 31.1607 268.953 63.2061 237.936C147.557 156.287 263.054 103.082 380.196 91.8859C393.571 90.6085 407.092 89.4108 420.678 88.2028C448.649 85.7643 477.599 83.1721 505.103 79.8826C553.862 73.9759 587.821 61.9691 605.96 44.1768C619.516 30.8528 625.453 14.5649 631.142 -1.17068C633.617 -7.97904 636.127 -14.9981 639.278 -21.7586C668.503 -84.3809 747.159 -133.294 839.443 -147.778ZM1385.22 807.242C1469.09 794.079 1543.34 762.292 1592.73 716.945C1666.03 649.665 1677.03 548.457 1617.75 486.476C1592.79 460.399 1559.66 441.872 1524.62 422.308C1503.22 410.362 1481.08 397.967 1460.78 383.691C1382.94 328.731 1346.21 247.238 1310.64 168.438C1301.11 147.337 1291.26 125.514 1280.83 104.605C1240.78 23.7345 1190.25 -36.6409 1126.46 -80.0423C1050.47 -131.749 954.665 -156.721 863.591 -148.589C762.298 -139.522 673.229 -88.3582 642.112 -21.1762C639.017 -14.476 636.5 -7.50698 634.024 -0.698623C628.236 15.2579 622.266 31.7566 608.308 45.5032C589.71 63.7784 555.203 76.1278 505.579 82.0675C478.019 85.4174 449.06 87.9595 421.024 90.4083C407.438 91.6163 393.917 92.8139 380.542 94.0914C264.249 105.154 149.381 158.107 65.5543 239.262C33.8038 270.028 15.9338 295.071 7.75319 320.494C-2.68371 352.844 5.42651 384.492 28.8119 403.111C47.2312 417.785 72.9117 425.464 100.131 433.57C105.81 435.246 111.571 437.013 117.405 438.819C183.587 459.555 240.158 507.684 276.754 574.253C294.091 605.891 306.63 639.771 318.801 672.579C329.711 702.042 340.975 732.476 355.655 761.244C405.976 859.453 499.364 935.084 611.966 968.667C734.404 1005.28 877.632 987.727 976.765 923.993C993.773 913.055 1010.11 900.424 1025.91 888.136C1056.01 864.768 1087.19 840.614 1125.08 826.809C1167.83 811.163 1215.04 812.382 1260.69 813.537C1273.85 813.885 1287.48 814.211 1300.77 814.128C1329.49 813.883 1357.88 811.534 1385.22 807.242Z" fill="#03396C"/>
</g>
<g opacity="0.0968">
<path d="M853.458 -124.915C861.942 -126.246 870.539 -127.288 879.256 -127.988C969.088 -135.514 1063.03 -110.917 1137 -60.5879C1199.07 -18.3043 1248.14 40.8622 1287.18 120.402C1296.7 139.759 1305.68 159.87 1314.4 179.249C1349.04 256.346 1384.89 336.077 1458.84 390.98C1477.31 404.67 1497 416.782 1516.02 428.485C1548.66 448.579 1579.52 467.514 1603.01 493.204C1660.11 555.735 1648.55 652.511 1576.02 718.334C1511.69 776.709 1404.61 812.364 1289.54 813.734C1276.72 813.896 1263.64 813.638 1250.97 813.419C1206.78 812.651 1161.04 811.818 1120.03 827.448C1084 841.167 1053.4 864.356 1023.81 886.769C1007.14 899.401 989.866 912.487 971.895 923.679C872.521 985.447 730.962 1001.71 611.197 965.089C500.423 931.219 408.662 856.155 359.548 759.246C345.305 731.128 334.355 701.415 323.693 672.684C311.25 638.994 298.43 604.182 280.273 572.006C244.411 508.403 188.95 461.383 124.143 439.61L122.24 438.984C88.2826 427.571 58.9793 417.687 39.1789 399.327C17.8867 379.557 12.7323 348.421 25.3701 316.033C37.5363 284.901 64.0438 257.372 85.7678 236.86C171.336 156.15 284.21 104.126 395.371 94.0235C415.677 92.1717 436.506 90.238 457.195 88.2746C479.467 86.1656 502.53 83.9838 524.426 82.0366C575.86 77.405 609.332 67.8372 626.812 52.6648C640.524 40.7545 646.172 26.4635 652.094 11.359C654.426 5.34348 656.931 -0.853178 659.875 -6.81059C689.199 -65.3911 765.154 -111.055 853.458 -124.915ZM1370.08 804.995C1452.51 792.057 1525.56 761.077 1574.03 717.107C1645.72 651.979 1657.25 556.286 1600.74 494.486C1577.48 469.015 1546.77 450.109 1514.21 430.156C1495.12 418.463 1475.43 406.351 1456.89 392.571C1382.55 337.369 1346.6 257.447 1311.86 180.11C1303.13 160.68 1294.1 140.63 1284.65 121.313C1245.8 42.1036 1196.89 -16.8327 1135.12 -58.9068C1061.67 -108.906 968.424 -133.355 879.252 -125.882C781.175 -117.627 694.097 -69.5495 662.381 -6.17686C659.43 -0.269614 656.983 5.8667 654.642 11.8321C648.853 26.5048 642.875 41.6696 628.696 54.0127C610.749 69.6178 576.655 79.4886 524.488 84.1327C502.592 86.0799 479.529 88.2616 457.257 90.3706C436.567 92.334 415.747 94.3178 395.367 96.1298C284.924 106.12 172.744 157.88 87.6434 238.158C66.0915 258.489 39.8135 285.776 27.7881 316.527C15.4395 348.202 20.4187 378.646 41.1674 397.936C60.5864 415.997 89.6704 425.761 123.343 437.065L125.247 437.691C190.622 459.683 246.538 507.042 282.601 571.075C300.848 603.392 313.675 638.254 326.126 671.994C336.715 700.686 347.657 730.348 361.884 758.366C410.797 854.844 502.023 929.479 612.17 963.19C731.024 999.541 871.537 983.444 970.11 922.11C987.959 910.988 1005.17 897.963 1021.78 885.341C1051.55 862.797 1082.33 839.477 1118.8 825.586C1160.38 809.764 1206.45 810.546 1251.05 811.352C1263.72 811.572 1276.73 811.84 1289.54 811.628C1317.12 811.357 1344.11 809.072 1370.08 804.995Z" fill="#03396C"/>
</g>
<g opacity="0.129">
<path d="M866.238 -101.855C875.702 -103.341 885.285 -104.485 894.997 -105.239C982.861 -112.097 1074.23 -88.0731 1145.61 -39.3906C1205.89 1.73535 1253.48 59.4925 1290.87 137.132C1299.5 155.037 1307.82 173.556 1315.86 191.503C1349.7 266.928 1384.6 344.906 1454.9 399.921C1471.36 412.796 1488.29 424.365 1504.69 435.555C1535.1 456.308 1563.86 475.933 1585.89 501.286C1639.12 562.626 1626.76 655.985 1557.18 718.418C1494.69 774.449 1390.53 809.183 1278.53 811.355C1266.26 811.585 1253.74 811.496 1241.61 811.345C1198.48 810.925 1153.81 810.489 1114.03 826.286C1079.41 840.04 1049.28 862.385 1020.1 883.965C1002.48 897.001 984.277 910.541 965.335 921.937C866.586 981.296 727.742 996.103 611.627 959.734C503.25 925.796 413.79 851.757 366.011 756.539C352.285 729.162 341.584 700.18 331.302 672.16C318.586 637.588 305.413 601.805 286.42 568.989C251.09 507.922 196.276 461.622 132.146 438.613C96.3547 425.741 68.9894 413.293 51.6713 394.133C33.4622 373.982 31.2559 343.308 45.7457 312.067C59.1953 283.147 84.8372 257.346 108.156 235.916C194.826 156.266 304.931 105.344 410.365 96.2432C426.723 94.8056 443.711 93.1151 460.169 91.4564C487.947 88.6374 516.654 85.7751 543.618 84.1624C580.717 81.9346 625.997 77.2931 647.533 61.1246C661.408 50.6781 667.065 37.721 673.003 24.0007C675.258 18.7677 677.619 13.3639 680.412 8.14917C710.402 -47.0433 781.59 -88.5696 866.238 -101.855ZM1354.88 802.71C1436 789.977 1507.84 759.803 1555.31 717.17C1624.13 655.422 1636.32 563.116 1583.74 502.497C1561.87 477.323 1533.26 457.778 1502.93 437.116C1486.53 425.926 1469.53 414.317 1452.99 401.402C1382.38 346.077 1347.3 267.868 1313.44 192.293C1305.41 174.396 1297.09 155.878 1288.46 137.973C1251.11 60.5835 1203.83 3.08614 1143.78 -37.82C1072.86 -86.1629 982.189 -109.988 894.986 -103.183C798.926 -95.7075 715.62 -51.7144 682.788 8.80337C679.98 13.9178 677.683 19.3114 675.421 24.4942C669.631 37.8831 663.643 51.7139 649.221 62.5031C627.152 79.1147 583.413 83.7713 543.598 86.1684C516.7 87.771 488 90.6833 460.28 93.442C443.822 95.1006 426.835 96.7911 410.476 98.2288C305.768 107.267 196.292 157.936 110.089 237.154C86.9423 258.402 61.4726 284.022 48.1715 312.611C33.9868 343.238 36.0831 373.211 53.814 392.872C70.808 411.673 97.8887 424.011 133.387 436.723C198.022 459.962 253.217 506.561 288.806 567.998C307.888 600.954 321.069 636.788 333.857 671.399C344.132 699.369 354.817 728.251 368.535 755.577C416.04 850.325 505.111 924.015 612.853 957.744C728.195 993.875 865.987 979.182 964.008 920.296C982.827 908.971 1000.98 895.542 1018.53 882.515C1047.83 860.815 1078.07 838.349 1113.14 824.474C1153.62 808.414 1198.56 808.858 1242.03 809.278C1254.08 809.389 1266.61 809.528 1278.81 809.308C1304.68 808.842 1330.27 806.572 1354.88 802.71Z" fill="#03396C"/>
</g>
<g opacity="0.1613">
<path d="M880.189 -79.0344C890.24 -80.6119 900.419 -81.7987 910.807 -82.5046C996.703 -88.6934 1085.44 -65.2831 1154.34 -18.2676C1212.91 21.7407 1258.86 78.0087 1294.77 153.828C1302.48 170.131 1309.99 186.927 1317.22 203.152C1350.29 277.105 1384.43 353.561 1451.09 408.889C1464.79 420.298 1478.46 430.735 1491.75 440.822C1520.62 462.893 1547.9 483.726 1568.92 509.445C1618.16 569.664 1605.06 659.595 1538.48 718.578C1476.95 773.072 1378.28 806.072 1267.67 809.002C1255.94 809.301 1244.04 809.32 1232.53 809.277C1190.39 809.214 1146.85 809.166 1108.17 825.15C1075.01 838.829 1045.48 860.31 1016.9 881.025C998.228 894.586 978.953 908.551 958.975 920.161C860.908 977.05 724.786 990.455 612.183 954.304C506.341 920.328 419.036 847.235 372.665 753.747C359.441 727.01 349.062 698.8 339.028 671.511C326.032 636.008 312.522 599.353 292.628 565.908C257.829 507.376 203.729 461.787 140.2 437.502C102.283 423.012 78.1218 407.545 64.2244 388.874C48.806 368.183 49.5272 338.693 66.1897 308.087C80.7269 281.41 105.741 257.146 130.604 234.908C182.085 188.823 288.787 109.829 425.484 98.3888C441.655 97.032 458.496 95.2617 474.743 93.5335C504.079 90.4186 534.467 87.1897 562.878 86.2743C604.993 84.9028 647.888 82.5357 668.38 69.51C682.433 60.6276 688.025 48.9646 693.972 36.5783C696.149 32.1279 698.36 27.4667 701.01 23.0449C731.384 -27.9966 799.848 -66.4246 880.189 -79.0344ZM1341.41 800.355C1420.77 787.899 1489.65 758.958 1536.62 717.33C1602.42 658.982 1615.36 570.104 1566.69 510.565C1545.82 484.977 1518.63 464.234 1489.83 442.252C1476.61 432.155 1462.86 421.679 1449.17 410.269C1382.2 354.682 1347.97 278.035 1314.8 203.942C1307.58 187.717 1300.07 170.972 1292.36 154.668C1256.56 79.1395 1210.85 23.0915 1152.58 -16.7072C1084.2 -63.3934 996.023 -86.635 910.853 -80.5088C818.539 -73.8778 737.035 -32.8896 703.337 23.8096C700.752 28.2212 698.526 32.782 696.414 37.2222C690.616 49.2771 684.554 61.7842 669.96 71.0595C648.79 84.4485 605.438 86.8873 562.859 88.2804C534.578 89.1753 504.255 92.3939 474.984 95.4986C458.673 97.237 441.831 99.0073 425.595 100.374C289.942 111.651 183.723 190.312 132.537 236.146C107.788 258.263 82.9547 282.396 68.566 308.741C52.1512 338.794 51.3929 367.623 66.4638 387.804C80.1834 406.194 104.036 421.402 141.531 435.752C205.49 460.227 259.972 506.116 295.021 564.967C315.004 598.552 328.457 635.268 341.526 670.811C351.552 698.05 361.866 726.27 375.074 752.907C421.236 845.914 508.087 918.667 613.367 952.475C725.197 988.387 860.332 975.086 957.663 918.62C977.584 907.071 996.793 893.117 1015.34 879.626C1044.03 858.79 1073.69 837.239 1107.16 823.408C1146.47 807.172 1190.35 807.219 1232.76 807.29C1244.26 807.283 1256.17 807.314 1267.82 807.025C1293.05 806.301 1317.72 804.074 1341.41 800.355Z" fill="#03396C"/>
</g>
<g opacity="0.1935">
<path d="M892.952 -56.0795C903.917 -57.8005 915.156 -59.0508 926.604 -59.8205C1010.53 -65.3408 1096.64 -42.4936 1163 2.81518C1219.85 41.6556 1264.17 96.4847 1298.58 170.433C1305.25 184.844 1311.85 199.627 1318.24 213.929C1350.6 286.711 1384.14 361.926 1447.26 417.706C1456.34 425.73 1465.22 433.324 1473.81 440.708C1504.34 466.937 1530.69 489.558 1551.91 517.402C1597.73 577.542 1584.26 662.139 1519.75 718.538C1460.13 770.678 1364.25 802.726 1256.83 806.438C1245.73 806.845 1234.37 806.933 1223.42 807.009C1182.34 807.344 1139.87 807.693 1102.27 823.814C1070.64 837.408 1041.89 857.893 1014.04 877.723C994.248 891.82 973.797 906.38 952.586 918.234C855.275 972.694 721.867 984.645 612.711 948.724C509.339 914.72 424.253 842.562 379.233 750.866C366.446 724.779 356.372 697.24 346.644 670.622C333.385 634.287 319.602 596.75 298.88 562.716C264.678 506.71 211.226 461.841 148.307 436.33C112.81 421.923 89.4416 404.688 76.7644 383.566C59.6382 354.977 75.5755 321.454 86.6127 304.006C102.634 278.689 128.204 255.416 153.032 233.8C242.808 155.614 344.978 108.249 440.517 100.444C456.761 99.1271 473.718 97.2361 490.087 95.4373C520.778 92.0069 552.529 88.5129 582.06 88.3461L587.342 88.3388C629.703 88.1098 669.733 87.9388 689.099 77.9659C703.274 70.7079 708.932 60.3184 714.903 49.3662C716.922 45.6084 719.062 41.78 721.545 38.0006C752.877 -9.49338 816.862 -44.0854 892.952 -56.0795ZM1325.94 798.108C1404.13 785.836 1471.93 757.681 1517.97 717.38C1581.7 661.616 1595.12 577.952 1549.74 518.463C1528.61 490.759 1502.33 468.177 1471.87 442.038C1463.29 434.654 1454.41 427.061 1445.33 419.036C1381.9 362.996 1348.33 287.631 1315.89 214.709C1309.5 200.407 1302.97 185.664 1296.23 171.263C1262 97.595 1217.85 42.9961 1161.3 4.31522C1095.45 -40.7144 1009.84 -63.3326 926.569 -57.9147C836.811 -52.0443 759.103 -14.9901 723.661 38.6958C721.227 42.3646 719.16 46.233 717.133 49.9407C711.269 60.722 705.191 71.845 690.337 79.4662C670.22 89.7626 629.864 89.9849 587.168 90.2149L581.887 90.2222C552.551 90.3584 520.873 93.8922 490.247 97.3124C473.878 99.1112 456.922 101.002 440.613 102.329C345.603 110.103 244.128 157.204 154.827 235.008C130.114 256.503 104.723 279.645 88.8011 304.742C77.9778 321.848 62.2725 354.717 78.9621 382.656C91.3884 403.458 114.449 420.433 149.515 434.651C212.865 460.351 266.69 505.47 301.077 561.806C321.946 595.92 335.679 633.568 349.012 669.943C358.74 696.56 368.805 724.049 381.577 750.035C426.33 841.312 511.027 913.12 613.838 946.955C722.172 982.749 854.649 970.841 951.225 916.805C972.313 905.021 992.699 890.471 1012.43 876.434C1040.4 856.534 1069.27 835.978 1101.16 822.243C1139.31 805.83 1182.12 805.479 1223.46 805.153C1234.41 805.077 1245.7 805 1256.74 804.603C1280.56 803.793 1303.68 801.601 1325.94 798.108Z" fill="#03396C"/>
</g>
<g opacity="0.2258">
<path d="M907.036 -33.2278C918.588 -35.0409 930.422 -36.3334 942.416 -37.0347C1024.31 -41.8763 1107.92 -19.6127 1171.67 23.9994C1226.75 61.7323 1269.5 115.112 1302.34 187.2C1307.86 199.328 1313.35 211.717 1318.64 223.726C1350.47 295.717 1383.43 370.202 1443.31 426.645C1480.36 461.608 1510.61 491.118 1534.8 525.531C1577 585.623 1563.05 665.056 1500.91 718.668C1443.19 768.455 1350.19 799.642 1245.83 804.106C1235.34 804.571 1224.6 804.767 1214.26 804.951C1174.19 805.694 1132.77 806.391 1096.29 822.749C1066.3 836.187 1038.39 855.666 1011.45 874.481C990.422 889.183 968.663 904.359 946.098 916.529C849.542 968.56 718.857 979.108 613.147 943.416C512.302 909.323 429.386 838.212 385.767 748.195C373.408 722.709 363.641 695.841 354.145 669.855C340.621 632.688 326.632 594.259 304.967 559.756C271.435 506.316 218.631 462.167 156.25 435.391C122.481 420.918 99.9465 401.754 89.1973 378.429C76.6123 351.079 91.9198 320.788 106.936 300.148C123.218 277.768 145.622 258.176 175.36 232.914C239.399 178.643 339.893 112.076 455.451 102.721C471.891 101.374 488.97 99.4121 505.519 97.4824C537.5 93.7469 570.54 89.9478 601.127 90.5397C609.179 90.714 617.101 90.9087 624.761 91.1444C661.369 92.178 692.998 93.0174 709.818 86.4228C724.113 80.7893 729.781 71.7338 735.834 62.1555C737.766 59.1301 739.683 56.0046 741.95 52.9781C774.319 9.53287 835.637 -22.0214 907.036 -33.2278ZM1310.34 795.881C1387.35 783.793 1454.2 756.353 1499.26 717.49C1560.75 664.491 1574.5 585.912 1532.74 526.471C1508.63 492.197 1478.47 462.778 1441.49 427.854C1381.37 371.141 1348.4 296.556 1316.47 224.375C1311.18 212.366 1305.69 199.977 1300.17 187.849C1267.44 116.052 1224.92 62.8918 1170.08 25.3287C1106.7 -17.9838 1023.72 -40.0891 942.423 -35.2895C857.152 -30.2261 781.181 3.83344 744.131 53.663C741.921 56.6291 739.939 59.765 738.064 62.73C731.862 72.6397 725.973 81.9869 710.86 87.954C693.477 94.7911 661.571 93.8925 624.629 92.86C616.903 92.6345 609.047 92.4296 600.995 92.2553C570.604 91.6326 537.637 95.4717 505.787 99.1867C489.238 101.116 472.093 103.088 455.654 104.436C340.944 113.658 240.883 180.002 177.197 233.961C147.507 259.113 125.292 278.624 109.109 300.783C88.1949 329.436 81.9762 356.708 91.5334 377.549C102.089 400.493 124.308 419.347 157.645 433.631C220.385 460.556 273.562 504.955 307.214 558.736C328.968 593.379 342.973 631.908 356.505 669.125C365.927 695.071 375.695 721.94 388.038 747.325C431.456 836.911 513.924 907.733 614.265 941.597C719.202 977.05 849.031 966.585 944.909 914.918C967.286 902.829 989.053 887.703 1010.02 873.011C1037.08 854.126 1065.04 834.587 1095.28 821.007C1132.33 804.407 1174.07 803.659 1214.42 802.975C1224.76 802.791 1235.43 802.605 1245.92 802.14C1267.99 801.295 1289.52 799.148 1310.34 795.881Z" fill="#03396C"/>
</g>
<g opacity="0.2581">
<path d="M913.082 -9.62684C927.571 -11.9009 942.634 -13.4948 958.223 -14.298C1038.15 -18.4713 1119.12 3.17911 1180.34 45.1346C1233.7 81.7498 1274.89 133.68 1306.16 203.858C1310.28 213.072 1314.34 222.296 1318.39 231.52C1349.95 303.452 1382.62 377.828 1439.49 435.564C1471.38 467.847 1494.03 496.288 1517.81 533.592C1555.51 592.745 1540.85 668.9 1482.2 718.73C1426.38 766.164 1336.23 796.388 1234.95 801.655C1225.06 802.178 1214.95 802.482 1205.22 802.725C1164.35 803.902 1125.8 804.971 1090.4 821.465C1062.11 834.637 1035.31 853.069 1009.41 870.847C986.951 886.236 963.712 902.21 939.719 914.655C892.346 939.193 836.81 954.329 779.136 958.4C721.47 962.52 664.316 955.415 613.75 937.878C515.375 903.757 434.744 833.571 392.411 745.356C380.481 720.47 371.011 694.223 361.814 668.857C348.034 630.909 333.837 591.588 311.295 556.607C278.564 505.712 226.408 462.282 164.433 434.261C131.831 419.553 110.253 398.391 101.878 373.153C92.8311 345.76 110.784 316.133 127.501 296.099C144.217 276.065 166.369 257.848 191.959 236.832L198.002 231.877C291.8 154.601 383.592 111.843 470.699 104.848C487.212 103.541 504.471 101.448 521.135 99.3975C554.413 95.407 588.8 91.2424 620.581 92.6228C667.037 94.6272 709.433 95.4714 731.257 94.7681C743.436 94.3972 748.246 87.1198 753.384 79.3799C756.089 75.3089 758.843 71.1275 762.799 67.7846C784.13 30.2831 840.899 1.7025 913.082 -9.62684ZM1294.56 793.736C1370.53 781.813 1436.42 755.138 1480.62 717.592C1538.62 668.326 1553.08 593.024 1515.8 534.471C1492.11 497.257 1469.47 468.916 1437.67 436.724C1380.57 378.817 1347.87 304.292 1316.24 232.27C1312.18 223.045 1308.13 213.821 1304.01 204.607C1272.83 134.67 1231.88 82.9593 1178.75 46.5139C1117.91 4.85811 1037.5 -16.6738 958.164 -12.5426C865.894 -7.76734 789.919 24.1358 764.595 68.5811L764.374 68.8727C760.59 72.0345 757.828 76.1658 755.238 80.1161C750.05 87.9664 744.641 96.1084 731.068 96.544C708.844 97.2587 667.386 96.4214 620.188 94.3793C588.676 93.0081 554.419 97.1522 521.206 101.132C504.535 103.133 487.276 105.225 470.697 106.543C384.194 113.547 292.9 156.071 199.512 232.976L193.469 237.93C167.936 258.886 145.907 277.032 129.305 296.946C112.868 316.628 95.1705 345.753 103.993 372.564C112.174 397.421 133.493 418.214 165.591 432.692C227.924 460.863 280.323 504.563 313.223 555.688C335.863 590.859 350.059 630.18 363.855 668.229C373.044 693.544 382.514 719.792 394.437 744.627C436.511 832.472 516.825 902.348 614.639 936.301C716.268 971.554 843.374 962.492 938.431 913.265C962.367 900.88 985.483 884.977 1007.88 869.598C1033.9 851.75 1060.76 833.307 1089.24 820.005C1125.19 803.217 1165.87 802.071 1205.22 800.98C1214.93 800.687 1224.99 800.443 1234.87 799.92C1255.37 798.86 1275.3 796.758 1294.56 793.736Z" fill="#03396C"/>
</g>
<g opacity="0.2903">
<path d="M924.187 13.387C940.047 10.8978 956.7 9.20845 973.968 8.44985C1051.93 4.945 1130.27 26.0323 1188.95 66.281C1240.59 101.778 1280.2 152.21 1309.93 220.577L1316.65 236.161C1348.31 309.206 1381.03 384.755 1435.55 444.505C1464.14 475.815 1479.07 502.747 1493.52 528.828C1495.87 533.133 1498.28 537.378 1500.7 541.723C1528.56 591.019 1527.86 664.932 1463.37 718.863C1409.52 763.934 1322.24 793.246 1223.95 799.325C1214.68 799.907 1205.31 800.248 1196.21 800.649C1156.4 802.224 1118.72 803.721 1084.42 820.403C1058.01 833.227 1032.44 850.492 1007.77 867.153C983.76 883.349 958.911 900.14 933.171 912.963C836.9 960.84 714.635 968.371 614.126 932.582C518.294 898.473 439.884 829.222 398.886 742.698C387.376 718.363 378.139 692.746 369.232 667.951C355.253 629.161 340.808 589.109 317.38 553.599C285.458 505.299 234.015 462.58 172.373 433.273C131.614 413.888 118.309 387.062 114.309 367.968C109.715 345.937 120.961 320.444 147.823 292.192C163.148 276.074 181.889 261.269 203.667 244.087C209.079 239.796 214.614 235.435 220.321 230.893C317.397 153.204 401.704 113.882 485.623 107.027C502.266 105.699 519.64 103.486 536.434 101.415C570.994 97.0692 606.744 92.6393 639.588 94.8286C660.267 96.2053 679.811 98.0169 696.983 99.6357C720.6 101.835 739.264 103.58 751.54 103.399C762.718 100.053 767.879 95.4419 773.335 90.5796C776.21 88.0226 779.208 85.395 783.086 82.8346C803.465 49.4886 856.443 24.0198 924.187 13.387ZM1278.52 791.634C1353.57 779.854 1418.64 753.874 1461.91 717.705C1525.69 664.347 1526.39 591.257 1498.74 542.441C1496.32 538.096 1493.91 533.851 1491.56 529.546C1477.12 503.566 1462.27 476.674 1433.77 445.504C1379.02 385.584 1346.29 309.935 1314.6 236.74L1307.88 221.155C1278.27 153.079 1238.88 102.817 1187.47 67.5396C1129.17 27.5404 1051.31 6.58186 973.894 10.105C883.649 14.1515 809.533 42.9895 784.998 83.5104L784.646 83.8225C780.76 86.3327 777.827 88.95 774.952 91.5071C769.258 96.5607 763.86 101.363 751.98 104.922L751.784 104.953L751.588 104.984C739.116 105.195 720.314 103.421 696.494 101.202C679.321 99.5832 659.777 97.7716 639.164 96.3847C606.589 94.2045 570.977 98.664 536.548 102.989C519.761 105.11 502.38 107.274 485.671 108.612C402.282 115.434 318.482 154.575 221.815 231.891C216.173 236.423 210.573 240.794 205.162 245.085C183.506 262.196 164.757 276.952 149.546 292.949C123.086 320.778 111.973 345.839 116.489 367.369C120.434 386.112 133.472 412.518 173.646 431.584C235.58 461.05 287.323 503.979 319.35 552.52C342.868 588.169 357.328 628.322 371.315 667.162C380.214 691.907 389.451 717.523 400.945 741.758C441.773 828.053 519.859 896.943 615.203 930.924C715.078 966.504 836.551 959.045 932.136 911.482C957.688 898.74 982.48 882.009 1006.43 865.873C1031.22 849.142 1056.79 831.827 1083.39 818.922C1118.24 801.998 1157.92 800.393 1196.27 798.894C1205.37 798.543 1214.74 798.151 1223.95 797.579C1242.62 796.395 1260.9 794.399 1278.52 791.634Z" fill="#03396C"/>
</g>
<g opacity="0.3226">
<path d="M933.164 36.5271C950.916 33.7408 969.893 31.9435 989.77 31.1864C1065.69 28.3602 1141.47 48.8742 1197.67 87.4058C1247.61 121.785 1285.59 170.778 1313.74 237.234C1321.27 254.953 1328.05 273.456 1334.61 291.378C1356.55 351.054 1379.27 412.764 1431.58 453.295L1431.82 453.565C1439.91 469.757 1449.02 483.478 1457 495.528C1469.36 514.233 1480.13 530.416 1483.77 549.772C1522.23 594.992 1505.12 669.219 1444.71 718.915C1392.83 761.621 1308.42 790.021 1213.13 796.863C1204.53 797.493 1195.84 797.932 1187.42 798.381C1148.55 800.424 1111.87 802.33 1078.54 819.169C1054.13 831.525 1030.1 847.571 1006.85 863.033C981.116 880.169 954.476 897.908 926.852 911.078C831.539 956.545 711.924 962.633 614.723 927.044C521.491 892.886 445.243 824.631 405.588 739.848C394.434 716.073 385.488 691.028 376.805 666.814C362.643 627.282 347.999 586.388 323.701 550.45C292.734 504.824 241.931 462.775 180.541 432.093C139.764 411.736 128.914 383.086 126.976 362.641C124.869 340.271 138.367 315.914 168.307 288.104C181.909 275.492 198.37 263.201 215.796 250.246C224.473 243.748 233.518 237.038 242.818 229.827C315.714 173.19 404.859 131.464 500.595 109.145C553.368 96.8564 609.593 92.4999 658.897 96.8821C692.535 99.8713 723.221 104.505 745.56 107.932C756.318 109.582 765.561 110.956 772.517 111.816C783.63 109.764 788.8 106.487 794.215 103.069C797.078 101.284 799.998 99.4393 803.864 97.6514C822.932 68.3116 870.445 46.3711 933.164 36.5271ZM1429.94 454.373C1377.33 413.583 1354.65 351.763 1332.63 291.946C1326.08 274.074 1319.23 255.581 1311.76 237.853C1283.72 171.636 1245.9 122.824 1196.2 88.6644C1140.43 50.3219 1065.15 29.9869 989.687 32.7915C900.139 36.1637 829.524 61.3192 805.473 98.5288L805.308 98.76L804.998 98.9114C801.124 100.649 798.204 102.494 795.341 104.279C789.681 107.838 784.331 111.246 772.5 113.411L772.304 113.442L772.1 113.422C765.079 112.572 755.697 111.169 744.874 109.529C722.543 106.152 691.915 101.458 658.35 98.5088C609.999 94.2338 552.649 98.6641 500.912 110.739C405.56 132.946 316.79 174.51 244.132 230.956C234.832 238.168 225.795 244.927 217.11 251.375C199.749 264.32 183.346 276.55 169.801 289.102C140.27 316.54 126.906 340.465 129.007 362.374C130.89 382.467 141.596 410.627 181.723 430.675C243.332 461.476 294.427 503.686 325.5 549.551C349.952 585.619 364.603 626.563 378.781 666.195C387.456 690.359 396.402 715.405 407.483 739.139C447.018 823.582 522.884 891.538 615.685 925.506C712.317 960.876 831.133 954.811 925.825 909.647C953.327 896.548 979.844 878.879 1005.51 861.754C1028.82 846.232 1052.91 830.175 1077.45 817.748C1111.21 800.637 1148.22 798.73 1187.36 796.696C1195.78 796.248 1204.47 795.808 1213 795.188C1307.76 788.379 1391.67 760.161 1443.13 717.776C1502.88 668.595 1519.91 595.15 1481.75 550.551L1481.57 550.271C1477.96 531.116 1467.34 515.012 1454.99 496.357C1447.13 484.236 1438.03 470.565 1429.94 454.373Z" fill="#03396C"/>
</g>
<g opacity="0.3548">
<path d="M557.082 103.051C598.786 96.5053 641.212 94.9823 677.957 99.0245C732.257 104.985 777.992 116.45 793.244 120.322C804.489 119.533 809.487 117.721 815.172 115.596C817.892 114.604 820.67 113.552 824.392 112.557C848.211 78.9791 917.572 56.4856 1005.57 53.9208C1079.53 51.763 1152.74 71.6536 1206.34 108.539C1254.62 141.79 1290.98 189.344 1317.57 253.94C1324.69 271.208 1331.06 289.211 1337.26 306.573C1357.62 363.877 1378.76 423.115 1427.75 462.162L1427.99 462.432C1434.1 477.447 1440.73 490.324 1446.6 501.729C1456.78 521.394 1465.6 538.396 1466.77 557.83C1502.31 601.043 1484.39 671.753 1426 718.974C1357.69 774.172 1256.45 789.959 1202.24 794.41C1194.39 795.077 1186.38 795.565 1178.64 796.112C1140.71 798.573 1104.9 800.957 1072.67 817.983C1050.37 829.751 1028.07 844.447 1006.55 858.61C978.852 876.824 950.25 895.694 920.422 909.312C826.199 952.348 709.24 957.044 615.209 921.625C524.52 887.479 450.5 820.209 412.108 737.077C401.366 713.802 392.645 689.338 384.253 665.694C369.899 625.371 355.13 583.675 329.839 547.379C291.581 492.369 231.891 453.769 188.535 431.043C145.325 408.396 139.245 375.197 139.467 357.443C139.784 334.744 155.386 311.444 188.69 284.184C200.539 274.466 214.171 265.033 228.582 255.016C240.341 246.854 252.46 238.429 265.14 228.889C337.616 174.27 424.196 133.666 515.53 111.421C529.17 107.997 543.115 105.243 557.082 103.051ZM801.506 120.977C799.091 121.356 796.269 121.696 793.024 121.897L792.616 121.858C777.575 118.056 731.832 106.541 677.467 100.591C628.682 95.254 569.8 99.7194 515.954 112.844C424.947 135.038 338.677 175.49 266.503 229.908C253.766 239.508 241.647 247.933 229.888 256.095C215.478 266.112 201.91 275.535 190.118 285.192C157.297 312.119 141.836 335.038 141.522 357.326C141.252 374.779 147.246 407.427 189.732 429.725C233.235 452.531 293.152 491.301 331.58 546.541C356.967 583.027 371.81 624.763 386.179 665.187C394.571 688.83 403.285 713.244 413.953 736.479C452.218 819.221 525.864 886.241 616.13 920.248C709.527 955.458 825.744 950.725 919.411 907.981C949.05 894.444 977.595 875.635 1005.17 857.491C1026.75 843.268 1049.12 828.561 1071.47 816.733C1104.2 799.475 1140.27 797.1 1178.47 794.598C1186.15 794.111 1194.16 793.573 1202.01 792.906C1255.94 788.446 1356.6 772.751 1424.44 717.986C1482.43 671.187 1500.13 601.231 1464.89 558.589L1464.73 558.409L1464.69 558.208C1463.54 538.924 1455.19 522.823 1444.63 502.397C1438.77 491.042 1432.14 478.216 1426.03 463.15C1376.81 423.884 1355.65 364.496 1335.27 307.091C1329.07 289.729 1322.7 271.726 1315.58 254.508C1289.1 190.202 1252.91 142.829 1204.92 109.737C1151.62 73.0614 1078.97 53.2895 1005.48 55.4256C917.939 57.9688 849.142 80.2198 825.87 113.455L825.649 113.746L825.265 113.858C821.477 114.863 818.635 115.926 815.915 116.918C811.814 118.486 807.836 119.983 801.506 120.977Z" fill="#03396C"/>
</g>
<g opacity="0.3871">
<path d="M575.856 104.214C618.082 97.5869 660.563 96.4148 697.15 101.15C747.322 107.655 790.404 119.691 814.039 128.821C826.245 129.473 831.106 128.915 837.346 128.193C839.515 127.955 842.011 127.666 844.98 127.406C868.224 97.4102 934.125 78.4385 1021.37 76.6084C1093.36 75.119 1163.94 94.4464 1215.01 129.675C1261.59 161.859 1296.37 207.963 1321.32 270.609C1328.04 287.427 1334 304.93 1339.78 321.791C1359.5 379.248 1378.11 433.49 1423.8 471.053L1423.98 471.383C1428.03 484.409 1432.31 495.859 1436.16 505.936C1444.54 528.246 1451.26 545.886 1449.65 565.911C1482.27 607.118 1463.59 674.299 1407.14 719.007C1341.59 770.896 1243.75 787.023 1191.23 791.979C1184.11 792.635 1176.85 793.26 1169.91 793.784C1132.93 796.714 1097.99 799.526 1066.65 816.72C1046.71 827.708 1026.45 840.903 1006.92 853.675C977.072 873.15 946.205 893.351 913.905 907.409C820.772 948.014 706.47 951.317 615.616 916.118C527.528 881.923 455.735 815.64 418.613 734.208C408.219 711.444 399.78 687.5 391.605 664.388C377.134 623.312 362.181 580.874 335.963 544.211C306.487 502.974 259.592 464.522 196.579 429.884C164.604 412.356 148.382 383.984 152.075 352.127C155.53 322.156 186.305 296.68 209.115 280.106C219.256 272.711 230.626 265.482 242.602 257.85C257.008 248.656 271.962 239.119 287.562 227.734C359.735 175.011 443.741 135.479 530.558 113.43C545.422 109.71 560.649 106.601 575.856 104.214ZM846.007 128.836L845.477 128.868C842.305 129.109 839.809 129.398 837.378 129.677C831.008 130.42 826.009 130.948 813.468 130.297L813.126 130.248C789.63 121.147 746.678 109.092 696.579 102.626C647.164 96.2581 586.814 100.748 530.99 114.903C444.499 136.901 360.746 176.342 288.811 228.873C273.088 240.329 258.134 249.866 243.729 259.06C231.753 266.692 220.447 273.911 210.364 281.246C187.791 297.628 157.433 322.782 154.023 352.181C152.341 367.031 153.15 404.139 197.792 428.667C261.017 463.374 308.139 501.995 337.712 543.423C364.026 580.277 378.995 622.815 393.539 663.93C401.714 687.042 410.146 710.936 420.466 733.66C457.469 814.752 528.953 880.775 616.61 914.781C706.902 949.811 820.463 946.47 913.04 906.158C945.152 892.181 975.897 872.051 1005.68 852.636C1025.28 839.854 1045.53 826.608 1065.6 815.55C1097.36 798.084 1132.57 795.281 1169.88 792.3C1176.89 791.766 1184.08 791.15 1191.2 790.495C1243.45 785.53 1340.78 769.534 1405.92 718.018C1461.83 673.754 1480.28 607.225 1447.95 566.589L1447.73 566.419L1447.76 566.208C1449.39 546.334 1442.75 528.733 1434.37 506.474C1430.58 496.386 1426.25 484.996 1422.21 472.021C1376.29 434.238 1356.8 377.362 1337.93 322.339C1332.13 305.427 1326.12 287.985 1319.47 271.207C1294.56 208.761 1259.94 162.887 1213.66 130.863C1162.89 95.8941 1092.73 76.6556 1021.22 78.1735C934.304 80.0026 868.909 98.7921 846.286 128.485L846.007 128.836Z" fill="#03396C"/>
</g>
<g opacity="0.4194">
<path d="M594.369 105.418C637.118 98.709 679.784 97.8672 716.277 103.284C758.455 109.555 792.585 122.071 817.491 131.207C824.088 133.613 829.765 135.701 834.777 137.379C846.134 141.144 851.333 141.457 857.868 141.767C860.231 141.91 862.586 142.002 865.576 142.304C888.204 116.051 950.679 100.391 1037.12 99.3557C1107.07 98.545 1175.08 117.299 1223.68 150.811C1268.61 181.867 1301.76 226.532 1325.15 287.317C1331.46 303.685 1337.07 320.677 1342.46 337.139C1360.51 392.034 1377.62 443.943 1419.98 479.972L1420.14 480.102L1420.17 480.303C1422.29 489.985 1424.42 498.894 1426.39 506.751C1432.91 533.36 1437.68 552.642 1432.73 573.961C1462.36 613.172 1442.99 676.815 1388.5 719.059C1325.78 767.679 1231.18 784.066 1180.41 789.518C1174.1 790.201 1167.77 790.783 1161.52 791.405C1125.34 794.824 1091.21 798.075 1060.78 815.536C1043.42 825.502 1026.37 836.601 1008.35 848.315C976.069 869.303 942.699 891.027 907.608 905.625C815.638 943.839 703.993 945.749 616.301 910.67C530.821 876.477 461.256 811.179 425.338 731.459C415.292 709.205 407.135 685.782 399.235 663.14C384.588 621.373 369.509 578.133 342.364 541.101C314.015 502.358 269.002 465.665 204.835 428.795C158.68 402.296 161.496 362.719 164.83 346.891C171.169 316.981 202.839 293.367 229.695 276.158C238.506 270.512 248.073 265.005 258.189 259.154C274.07 249.985 292.159 239.545 310.212 226.748C382.261 175.791 463.759 137.32 545.814 115.607C561.602 111.383 577.988 107.99 594.369 105.418ZM866.357 143.876L865.746 143.818C862.618 143.487 860.06 143.375 857.566 143.253C850.819 142.873 845.498 142.63 833.856 138.757C828.845 137.078 823.102 135 816.497 132.545C791.664 123.448 757.673 110.962 715.699 104.71C665.515 97.282 603.625 101.757 545.969 117.021C464.175 138.693 382.922 177.022 311.119 227.838C293 240.645 274.919 251.136 258.973 260.315C248.858 266.166 239.355 271.663 230.61 277.298C203.999 294.366 172.682 317.668 166.467 347.096C163.159 362.663 160.379 401.619 205.795 427.668C270.173 464.608 315.283 501.491 343.787 540.364C371.02 577.536 386.18 620.866 400.835 662.683C408.728 685.275 416.95 708.688 426.923 730.902C462.655 810.292 531.984 875.37 617.106 909.414C704.295 944.264 815.271 942.356 906.743 904.374C941.646 889.857 974.958 868.193 1007.18 847.266C1025.26 835.492 1042.31 824.393 1059.74 814.416C1090.53 796.743 1124.93 793.451 1161.36 789.992C1167.63 789.419 1173.95 788.787 1180.26 788.104C1230.83 782.683 1324.9 766.378 1387.21 718.08C1441.22 676.219 1460.42 613.218 1430.95 574.549L1430.78 574.319L1430.87 574.048C1435.84 552.878 1431.16 533.686 1424.64 507.078C1422.74 499.261 1420.55 490.412 1418.44 480.78C1375.9 444.52 1358.78 392.561 1340.72 337.516C1335.32 321.054 1329.71 304.062 1323.41 287.744C1300.13 227.199 1267.07 182.724 1222.43 151.828C1174.2 118.516 1106.62 99.9005 1037.06 100.7C950.819 101.704 888.727 117.253 866.809 143.343L866.357 143.876Z" fill="#03396C"/>
</g>
<g opacity="0.4516">
<path d="M612.608 106.612C655.879 99.8201 698.788 99.2484 735.457 105.357C786.336 113.806 824.853 131.694 850.38 143.506L855.501 145.886C870.346 152.698 874.895 153.987 885.955 157.13L886.166 157.2C908.056 134.761 967.22 122.291 1052.92 122.091C1120.9 121.899 1186.28 140.09 1232.34 171.944C1275.56 201.933 1307.16 245.149 1328.96 303.973C1334.88 319.941 1340.08 336.484 1345.07 352.495C1361.52 404.868 1377.04 454.355 1416.09 488.851L1416.24 488.98L1416.28 489.181C1416.83 493.562 1417.35 497.743 1417.91 501.713C1422.33 535.84 1425.2 558.398 1415.73 582.02C1428.75 600.212 1431.25 624.215 1422.61 649.659C1414.03 675.093 1395.23 699.768 1369.7 719.079C1312.93 762.093 1229.44 779.768 1169.46 787.075C1164.01 787.725 1158.56 788.325 1153.17 788.964C1117.82 792.921 1084.36 796.632 1054.84 814.311C1040.35 823.004 1025.97 832.349 1010.8 842.228C975.796 865.03 939.57 888.589 901.094 903.769C810.352 939.582 701.372 940.15 616.711 905.212C533.912 871.06 466.502 806.708 431.847 728.638C422.14 706.844 414.201 683.952 406.575 661.781C391.81 619.262 376.621 575.32 348.492 537.981C313.348 491.316 257.552 454.518 212.817 427.694C164.468 398.716 173.447 354.524 177.318 341.694C186.53 311.333 221.014 288.613 250.002 272.199C257.745 267.851 265.969 263.581 274.618 259.039C292.366 249.834 312.468 239.437 332.45 225.721C404.677 176.328 483.544 138.989 560.657 117.744C577.784 113.105 595.183 109.347 612.608 106.612ZM886.695 158.863L885.222 158.427C874.024 155.254 869.475 153.965 854.484 147.073L849.297 144.703C823.909 132.921 785.472 115.123 734.871 106.733C683.78 98.2143 620.488 102.704 561.073 119.117C484.221 140.321 405.469 177.539 333.495 226.841C313.325 240.638 293.231 251.085 275.418 260.301C266.696 264.802 258.537 269.062 250.859 273.4C222.116 289.672 188 312.181 178.906 342.009C175.077 354.68 166.256 398.178 213.801 426.718C258.609 453.582 314.617 490.45 349.864 537.354C378.09 574.884 393.36 618.916 408.133 661.485C415.816 683.596 423.756 706.488 433.39 728.242C467.925 805.971 535.034 870.113 617.54 904.106C701.77 938.854 810.082 938.289 900.318 902.659C938.541 887.569 974.701 864.021 1009.65 841.279C1024.88 831.389 1039.26 821.995 1053.75 813.351C1083.71 795.45 1117.35 791.659 1152.98 787.711C1158.37 787.122 1163.82 786.522 1169.26 785.822C1228.98 778.556 1312.09 760.992 1368.5 718.241C1420.57 678.843 1440.51 619.27 1413.95 582.607L1413.78 582.377L1413.88 582.106C1423.44 558.675 1420.51 536.177 1416.1 502.1C1415.61 498.17 1415.03 494.05 1414.5 489.769C1375.34 455.033 1359.73 405.456 1343.28 353.033C1338.23 337.032 1333.09 320.479 1327.18 304.561C1305.47 245.927 1274.04 202.891 1231.04 173.072C1185.29 141.427 1120.33 123.375 1052.75 123.556C967.114 123.746 908.276 136.165 887.104 158.491L886.695 158.863Z" fill="#03396C"/>
</g>
<g opacity="0.4839">
<path d="M630.661 107.837C674.454 100.963 717.679 100.702 754.597 107.542C809.346 117.643 850.239 139.164 876.178 154.455C881.19 157.417 884.967 159.752 888.305 161.847C894.608 165.789 899.27 168.652 906.782 172.198C933.209 148.842 1009.29 144.451 1068.67 144.888C1134.62 145.375 1197.44 162.992 1240.95 193.14C1281.94 221.631 1312.82 264.599 1332.67 320.752C1338.19 336.32 1342.99 352.413 1347.58 368.024C1362.42 417.825 1376.35 464.839 1412.09 497.851L1412.25 498.031L1412.29 498.232C1413.68 538.638 1413.76 564.715 1398.58 590.261C1422.7 625.969 1402.25 681.411 1350.89 719.312C1296.96 759.157 1216.49 776.923 1158.48 784.795C1153.96 785.402 1149.5 785.998 1145.04 786.544C1110.37 791.011 1077.54 795.291 1048.79 813.258C1037.59 820.256 1026.37 827.614 1014.55 835.376C976.414 860.415 936.94 886.281 894.556 902.127C850.971 918.418 802.555 926.941 754.515 926.777C705.472 926.617 657.94 917.334 617.089 899.915C536.899 865.765 471.716 802.399 438.266 726.04C428.899 704.707 421.234 682.285 413.752 660.605C398.876 617.384 383.57 572.691 354.456 535.043C320.714 491.343 267.729 456.261 220.702 426.766C181.473 402.211 179.031 364.075 189.767 336.608C201.826 305.647 239.133 283.87 270.268 268.352C277.15 264.909 284.448 261.555 292.179 257.979C311.384 249.11 333.211 239.059 354.786 224.836C428.46 176.14 502.767 140.853 575.599 120.023C593.837 114.798 612.257 110.726 630.661 107.837ZM907.041 173.852L906.464 173.583C898.465 169.908 893.721 166.955 887.199 162.894C883.861 160.799 880.084 158.464 875.145 155.542C849.279 140.29 808.597 118.839 754.125 108.797C702.063 99.1981 637.173 103.733 576.187 121.214C503.486 142.024 429.432 177.221 355.938 225.785C334.249 240.129 312.356 250.19 293.086 259.07C285.42 262.635 278.122 265.989 271.232 269.382C240.343 284.759 203.403 306.323 191.542 336.843C180.948 363.929 183.433 401.493 221.997 425.639C269.161 455.163 322.228 490.335 356.132 534.215C385.342 572.053 400.722 616.786 415.548 660.117C422.957 681.758 430.687 704.169 439.981 725.463C473.327 801.581 538.266 864.677 618.098 898.678C699.362 933.277 805.09 934.144 894.025 900.875C936.156 885.12 975.573 859.315 1013.65 834.336C1025.47 826.574 1036.69 819.266 1047.89 812.218C1077 794.039 1110.03 789.728 1144.97 785.221C1149.42 784.624 1153.88 784.078 1158.4 783.472C1216.15 775.59 1296.3 757.925 1349.87 718.342C1400.81 680.764 1421.01 625.824 1396.96 590.618L1396.78 590.337L1396.94 590.056C1412.1 564.771 1412.03 538.794 1410.73 498.578C1374.9 465.376 1360.88 418.271 1346.04 368.42C1341.39 352.869 1336.58 336.727 1331.14 321.198C1311.38 265.236 1280.67 222.498 1239.84 194.137C1196.61 164.148 1134.22 146.67 1068.61 146.182C983.445 145.528 927.753 154.988 907.574 173.409L907.041 173.852Z" fill="#03396C"/>
</g>
<g opacity="0.5161">
<path d="M648.63 109.021C692.944 102.066 736.559 102.154 773.774 109.614C830.261 120.984 871.866 144.91 896.901 162.962C903.76 167.894 908.416 171.991 912.585 175.548C917.306 179.635 921.402 183.152 927.436 187.084C947.391 172.345 998.753 165.978 1084.52 167.513C1149.44 168.675 1208.08 185.253 1249.66 214.164C1289.08 241.617 1318.32 283.045 1336.54 337.348C1341.66 352.516 1346.07 368.259 1350.27 383.471C1363.42 430.659 1375.89 475.181 1408.32 506.659L1408.48 506.839L1408.45 507.05C1406.22 547.407 1401.29 573.913 1381.57 598.27C1402.64 631.941 1381.44 683.906 1332.15 719.272C1291.89 748.19 1231.12 769.181 1151.49 781.678C1150.19 781.883 1148.88 782.087 1147.58 782.292C1144.18 782.825 1140.78 783.308 1137.39 783.84C1103.21 788.897 1070.99 793.696 1042.91 812.023C1035.45 816.892 1028.06 821.8 1020.25 827.031C978.478 854.851 935.311 883.607 888.17 900.251C845.211 915.416 797.852 923.004 751.193 922.264C703.385 921.447 657.207 911.849 617.693 894.426C540.184 860.317 477.222 797.886 444.968 723.189C435.941 702.316 428.484 680.375 421.277 659.165C406.357 615.232 390.94 569.837 360.842 531.882C327.903 490.315 276.571 456.823 231.338 427.252L228.951 425.675C188.866 399.508 189.661 358.553 202.522 331.42C217.536 299.687 257.617 278.964 290.841 264.402C297.222 261.603 303.823 258.923 310.865 256.072C331.363 247.77 354.565 238.377 377.355 223.809C452.852 175.649 522.665 142.402 590.839 122.149C609.806 116.45 629.246 112.063 648.63 109.021ZM927.377 188.84L926.857 188.51C920.392 184.389 916.207 180.732 911.332 176.515C907.228 172.948 902.515 168.911 895.721 163.969C870.832 145.996 829.382 122.2 773.237 110.88C720.138 100.211 653.773 104.721 591.224 123.321C523.237 143.493 453.62 176.709 378.238 224.749C355.325 239.387 331.993 248.801 311.438 257.163C304.396 260.015 297.795 262.694 291.47 265.433C258.492 279.854 218.787 300.415 203.971 331.706C191.316 358.448 190.501 398.841 229.992 424.639L232.379 426.216C277.758 455.866 329.106 489.459 362.199 531.155C392.386 569.251 407.884 614.736 422.82 658.769C430.027 679.978 437.475 701.869 446.502 722.742C478.652 797.2 541.371 859.36 618.595 893.36C698.186 928.375 798.837 930.553 887.663 899.149C934.551 882.597 977.66 853.901 1019.31 826.152C1027.12 820.921 1034.51 816.012 1041.97 811.143C1070.36 792.615 1102.83 787.775 1137.21 782.687C1140.61 782.205 1144 781.672 1147.4 781.14C1148.7 780.935 1150.01 780.73 1151.31 780.525C1230.68 768.069 1291.13 747.229 1331.15 718.453C1380.01 683.309 1401.01 631.786 1379.96 598.626L1379.77 598.296L1379.99 598.004C1399.61 573.868 1404.57 547.513 1406.82 507.356C1374.38 475.727 1361.89 431.105 1348.66 383.877C1344.4 368.676 1340 352.983 1334.94 337.804C1316.76 283.752 1287.68 242.504 1248.49 215.221C1207.14 186.53 1148.85 170.051 1084.26 168.838C998.216 167.244 947.065 173.68 927.844 188.407L927.377 188.84Z" fill="#03396C"/>
</g>
<g opacity="0.5484">
<path d="M666.412 110.238C711.249 103.2 755.31 103.578 792.904 111.75C857.014 125.672 898.489 155.165 917.502 171.491C924.77 177.746 929.476 183.017 933.947 188.067C938.174 192.848 942.232 197.398 947.984 202.093C971.259 188.477 1034.9 188.349 1100.27 190.261C1163.15 192.101 1219.29 208.096 1258.34 235.3C1296.12 261.725 1323.72 301.664 1340.3 354.017C1345.04 368.885 1348.99 384.238 1352.85 399.09C1364.39 443.605 1375.33 485.645 1404.36 515.5L1404.52 515.68L1404.49 515.89C1398.18 560.023 1387.31 584.531 1364.51 606.291C1382.51 637.876 1360.63 686.402 1313.37 719.295C1274.49 746.402 1216.61 766.22 1136.63 779.802L1130.11 780.927C1096.3 786.594 1064.44 791.954 1036.96 810.75L1028.26 816.686C984.421 846.678 934.794 880.712 881.721 898.338C793.82 927.541 695.297 924.002 618.095 888.869C542.186 854.304 482.975 794.469 451.411 720.33C442.716 699.868 435.469 678.407 428.463 657.628C413.44 613.044 397.97 566.887 366.838 528.734C337.18 492.302 294.177 463.306 252.588 435.218C247.277 431.635 241.967 428.051 236.795 424.498C195.905 396.608 199.463 354.089 214.872 326.146C232.948 293.469 275.737 273.811 311.008 260.365C317.004 258.089 323.276 255.872 329.867 253.554C351.412 245.961 375.807 237.355 399.527 222.744C448.562 192.604 523.264 149.602 605.617 124.248C625.784 118.104 646.18 113.413 666.412 110.238ZM947.706 203.729L947.244 203.339C941.191 198.434 937.044 193.744 932.655 188.783C928.184 183.733 923.551 178.503 916.291 172.298C897.359 156.061 856.103 126.688 792.344 112.865C738.061 101.047 670.171 105.642 606.189 125.339C524.032 150.663 449.453 193.594 400.541 223.664C376.633 238.356 352.107 246.981 330.505 254.635C323.914 256.953 317.707 259.16 311.711 261.436C276.693 274.791 234.207 294.247 216.402 326.522C201.142 354.134 197.693 396.07 237.99 423.591C243.162 427.145 248.464 430.678 253.783 434.311C295.437 462.389 338.521 491.476 368.269 528.048C399.432 566.4 414.975 612.598 430.013 657.282C437.012 678.011 444.193 699.482 452.888 719.944C484.348 793.842 543.332 853.508 618.948 887.914C695.719 922.858 793.77 926.368 881.23 897.336C933.984 879.812 983.554 845.839 1027.27 815.917L1035.97 809.98C1063.82 790.973 1095.87 785.582 1129.88 779.884L1136.4 778.76C1216.12 765.219 1273.75 745.492 1312.39 718.576C1359.28 685.895 1380.96 637.811 1362.9 606.647L1362.71 606.316L1363 606.015C1385.76 584.466 1396.59 560.118 1402.94 516.236C1373.81 486.192 1362.86 444.102 1351.32 399.536C1347.45 384.685 1343.5 369.332 1338.77 354.513C1322.23 302.361 1294.79 262.602 1257.16 236.357C1218.35 209.323 1162.56 193.427 1100.01 191.586C1034.37 189.664 970.591 189.763 948.197 203.447L947.706 203.729Z" fill="#03396C"/>
</g>
<g opacity="0.5806">
<path d="M684.057 111.471C729.35 104.362 773.932 105.069 811.97 113.941C882.415 130.31 923.605 165.651 938.113 180.117C945.489 187.485 950.195 194.039 954.732 200.363C958.913 206.127 962.852 211.621 968.485 217.259C990.357 207.92 1048.58 210.337 1115.96 213.166C1176.81 215.685 1230.4 231.156 1266.89 256.603C1303.11 281.99 1329.07 320.44 1344.01 370.892C1348.31 385.472 1351.94 400.515 1355.36 415.077C1365.33 456.859 1374.68 496.377 1400.44 524.637L1400.6 524.817L1400.57 525.028C1390.79 567.496 1375.41 593.484 1347.42 614.568C1362.35 644.118 1339.73 689.166 1294.62 719.564C1247.02 751.635 1179.35 767.393 1125.71 777.558L1123.56 777.946C1089.92 784.305 1058.09 790.327 1030.97 809.683C982.688 844.174 930.96 879.307 875.297 896.621C788.974 923.523 693.042 918.601 618.66 883.539C545.498 849.005 488.441 790.115 458.074 717.638C449.646 697.596 442.665 676.556 435.934 656.247C420.866 610.951 405.286 564.092 373.178 525.682C346.096 493.314 307.855 466.96 270.889 441.485C261.892 435.295 253.416 429.436 245.062 423.505C206.071 395.78 208.234 352.042 227.645 321.056C249.096 286.874 297.27 267.86 331.608 256.564C337.389 254.63 343.391 252.815 349.775 250.888C372.245 244.075 397.712 236.328 422.189 221.855C483.076 185.849 549.304 149.364 620.884 126.522C641.69 119.764 662.976 114.78 684.057 111.471ZM968.102 218.654L967.713 218.305C961.787 212.507 957.76 206.873 953.49 200.969C948.961 194.695 944.254 188.141 936.96 180.863C922.606 166.527 881.512 131.376 811.475 115.046C755.951 102.139 686.578 106.659 621.18 127.554C549.731 150.376 483.625 186.79 422.795 222.736C398.138 237.34 372.541 245.107 350.006 251.931C343.686 253.847 337.685 255.662 331.903 257.597C297.826 268.851 249.956 287.664 228.784 321.494C209.586 352.138 207.402 395.314 245.939 422.7C254.301 428.68 262.834 434.48 271.765 440.679C308.805 466.195 347.119 492.588 374.29 525.097C406.487 563.647 422.075 610.556 437.223 655.942C443.955 676.251 450.935 697.291 459.356 717.283C489.619 789.52 546.513 848.229 619.391 882.654C693.415 917.567 788.939 922.45 874.814 895.67C930.215 878.397 981.894 843.374 1029.99 808.964C1057.41 789.356 1089.36 783.314 1123.26 776.914L1125.41 776.526C1178.85 766.392 1246.34 750.715 1293.69 718.785C1338.51 688.588 1360.98 643.872 1345.91 614.754L1345.77 614.263L1346.13 614.001C1374.01 593.088 1389.35 567.311 1399.1 525.053C1373.38 496.632 1363.97 457.125 1353.99 415.292C1350.5 400.74 1346.94 385.737 1342.65 371.157C1327.74 320.906 1301.94 282.636 1265.95 257.418C1229.68 232.091 1176.38 216.729 1115.86 214.209C1048.14 211.382 989.651 208.955 968.666 218.412L968.102 218.654Z" fill="#03396C"/>
</g>
<g opacity="0.6129">
<path d="M701.636 112.669C747.451 105.478 792.479 106.474 831.166 116.066C904.917 134.33 945.005 172.874 958.78 188.636C966.191 197.077 970.89 204.865 975.42 212.423C979.506 219.28 983.455 225.696 989.107 232.308C1005.29 228.072 1040.49 230.304 1088.97 233.325C1102.61 234.163 1116.8 235.069 1131.84 235.893C1173.45 238.144 1232.13 247.269 1275.63 277.728C1310.28 302.078 1334.6 339.039 1347.9 387.54C1351.83 401.92 1355.01 416.674 1358.06 430.987C1366.39 469.996 1374.25 506.87 1396.62 533.457L1396.78 533.637L1396.68 533.858C1383.46 575.786 1363.63 602.37 1330.36 622.589C1342.22 650.052 1318.87 691.673 1275.83 719.586C1232.56 747.641 1172.82 762.872 1114.76 775.118C1083.88 781.608 1051.91 788.372 1025.04 808.51C983.452 839.639 928.161 877.643 868.872 894.857C784.193 919.447 690.86 913.193 619.152 878.122C548.744 843.669 493.842 785.726 464.606 714.92C456.51 695.287 449.731 674.678 443.2 654.8C428.096 608.842 412.471 561.271 379.329 522.664C354.372 493.609 319.9 469.539 286.491 446.279C274.775 438.103 263.742 430.436 252.995 422.467C234.838 409.036 224.638 390.916 223.509 370.087C222.462 351.916 228.399 332.649 240.077 315.871C258.911 288.879 294.473 268.763 351.849 252.568C357.547 250.954 363.465 249.46 369.693 247.815C392.965 241.851 419.315 235.045 444.427 220.781C501.528 188.347 566.242 151.587 635.793 128.601C657.539 121.439 679.707 116.111 701.636 112.669ZM988.489 233.483L988.238 233.163C982.359 226.382 978.386 219.815 974.212 212.818C969.69 205.31 964.998 197.573 957.661 189.172C943.901 173.51 904.049 135.185 830.647 117.021C773.801 102.934 702.969 107.529 636.276 129.552C566.913 152.457 502.265 189.208 445.229 221.631C419.872 236.036 393.449 242.803 370.054 248.837C363.818 250.432 357.973 251.966 352.275 253.579C295.283 269.663 260.024 289.578 241.353 316.339C220.119 346.789 214.961 392.743 254.01 421.692C264.684 429.62 275.725 437.337 287.433 445.464C320.85 468.774 355.387 492.833 380.432 522.029C413.664 560.776 429.362 608.387 444.482 654.445C451.012 674.323 457.791 694.932 465.88 714.514C495.019 785.13 549.694 842.904 619.882 877.237C691.233 912.159 784.158 918.374 868.446 893.846C927.482 876.722 982.657 838.839 1024.13 807.781C1051.29 787.442 1083.46 780.646 1114.53 774.075C1172.46 761.85 1232.01 746.7 1275.04 718.787C1317.83 691.014 1340.96 649.685 1328.96 622.654L1328.77 622.273L1329.2 622.001C1362.3 601.963 1382.1 575.59 1395.28 533.872C1372.89 507.136 1365.03 470.261 1356.69 431.202C1353.64 416.889 1350.46 402.136 1346.54 387.806C1333.27 339.505 1309.11 302.724 1274.68 278.494C1231.47 248.194 1173.01 239.138 1131.6 236.907C1116.49 236.093 1102.37 235.177 1088.73 234.339C1041.73 231.393 1004.65 229.097 988.946 233.412L988.489 233.483Z" fill="#03396C"/>
</g>
<g opacity="0.6452">
<path d="M719.132 113.827C765.47 106.555 811.083 107.87 850.28 118.152C926.923 138.222 966.12 180.039 979.358 197.067C986.73 206.541 991.422 215.563 995.93 224.254C1000.05 232.184 1003.9 239.694 1009.57 247.278C1020.73 246.349 1041.13 248.489 1069.27 251.416C1090.96 253.662 1117.95 256.512 1147.56 258.541C1187.71 261.279 1244 270.522 1284.22 298.826C1317.31 322.188 1340 357.659 1351.58 404.221C1355.15 418.451 1357.84 433.026 1360.46 447.15C1367.21 483.326 1373.58 517.507 1392.59 542.359L1392.75 542.539L1392.65 542.76C1376 584.509 1351.44 611.63 1313.23 630.672C1321.96 656.059 1297.92 694.191 1257.05 719.66C1213.01 747.116 1149.86 761.906 1103.81 772.679C1072.07 780.125 1043.8 787.85 1019.03 807.299C962.422 851.826 911.182 879.847 862.358 893.006C779.402 915.373 688.596 907.747 619.561 872.667C551.916 838.346 499.161 781.297 471.114 712.102C463.276 692.841 456.771 672.702 450.427 653.154C435.285 606.534 419.624 558.301 385.447 519.497C362.333 493.234 330.922 471.201 300.501 449.937C286.602 440.203 273.45 430.968 261.042 421.36C220.789 390.289 228.487 342.19 252.637 310.717C279.341 275.916 326.272 251.55 372.358 248.631C402.616 246.707 436.19 236.507 466.81 219.837C473.71 216.083 480.668 212.269 487.626 208.455C539.529 179.971 593.157 150.548 650.781 130.821C673.37 123.064 696.355 117.402 719.132 113.827ZM1391.51 542.734C1372.48 517.731 1366.11 483.55 1359.35 447.324C1356.73 433.2 1353.98 418.636 1350.48 404.445C1338.93 358.084 1316.4 322.792 1283.46 299.56C1243.47 271.427 1187.47 262.292 1147.45 259.535C1117.84 257.505 1090.78 254.665 1069.1 252.419C1040.75 249.473 1020.21 247.303 1009.33 248.292L1008.94 248.353L1008.77 248.123C1002.94 240.359 999.003 232.759 994.802 224.739C990.295 216.048 985.683 207.116 978.319 197.692C965.089 180.715 926.127 139.117 849.834 119.147C791.601 103.891 719.228 108.471 651.322 131.712C593.829 151.418 540.258 180.781 488.42 209.255C481.397 213.079 474.504 216.883 467.604 220.637C436.739 237.448 402.977 247.729 372.45 249.644C326.894 252.531 280.323 276.635 253.849 311.195C229.921 342.376 222.34 389.943 262.072 420.685C274.481 430.293 287.625 439.477 301.524 449.211C331.953 470.525 363.372 492.609 386.632 518.952C420.963 557.886 436.633 606.169 451.789 652.889C458.126 672.386 464.631 692.525 472.469 711.787C500.484 780.782 553.077 837.65 620.503 871.852C689.311 906.761 779.644 914.359 862.216 892.104C910.787 879.036 961.84 851.096 1018.33 806.689C1043.34 787.049 1071.74 779.253 1103.67 771.777C1149.66 761.014 1212.61 746.255 1256.47 718.93C1297.16 693.592 1321.04 655.691 1312.1 630.695L1311.97 630.305L1312.4 630.082C1350.43 611.172 1374.82 584.232 1391.51 542.734Z" fill="#03396C"/>
</g>
<g opacity="0.6774">
<path d="M735.676 115.287C782.928 107.871 829.975 109.372 869.469 120.276C925.321 135.699 972.933 166.797 1000.08 205.574C1007.42 216.082 1012.02 226.247 1016.45 236.132C1020.55 245.196 1024.36 253.739 1030.12 262.335C1036.32 263.007 1045.53 264.642 1057.15 266.67C1081.78 271.023 1118.98 277.561 1163.37 281.277C1219.68 285.998 1263.24 298.984 1292.95 319.95C1324.54 342.314 1345.59 376.296 1355.46 420.867C1358.62 435.009 1360.84 449.555 1363.03 463.54C1368.18 496.782 1373.1 528.11 1388.83 551.217L1388.93 551.408L1388.83 551.629C1368.64 593.419 1339.21 621.098 1296.24 638.731C1301.96 662.383 1277.73 696.333 1238.33 719.721C1199.98 742.484 1148.18 755.904 1102.56 767.738C1099.28 768.561 1096.07 769.424 1092.92 770.227C1060.09 778.769 1035.28 787.747 1013.16 806.114C976.814 836.162 920.033 875.324 856.049 891.17C774.875 911.255 686.676 902.347 620.177 867.229C555.351 832.978 504.759 776.926 477.763 709.312C470.257 690.46 463.88 670.712 457.802 651.585C442.681 604.243 426.983 555.348 391.714 516.407C370.111 492.526 341.258 472.3 313.378 452.742C297.677 441.751 282.868 431.338 269.164 420.29C250.868 405.546 241.499 385.908 242.05 363.429C242.53 343.478 250.805 322.919 265.266 305.55C294.415 270.571 344.434 246.696 392.739 244.713C425.431 243.382 459.766 234.193 489.253 218.83C501.867 212.28 514.817 205.317 527.399 198.565C571.679 174.77 617.496 150.117 665.895 132.968C688.633 124.879 712.181 118.975 735.676 115.287ZM1387.68 551.552C1371.93 528.344 1367.07 496.956 1361.86 463.724C1359.66 449.74 1357.45 435.244 1354.3 421.102C1344.45 376.681 1323.5 342.889 1292.12 320.645C1262.64 299.849 1219.22 286.892 1163.17 282.181C1118.72 278.475 1081.51 271.886 1056.83 267.594C1045.01 265.546 1035.72 263.872 1029.6 263.24L1029.33 263.231L1029.23 263.04C1023.38 254.303 1019.48 245.67 1015.31 236.517C1010.89 226.682 1006.28 216.517 998.964 206.109C971.902 167.472 924.509 136.494 868.942 121.18C810.087 104.944 734.323 109.645 666.29 133.779C618.021 150.908 572.262 175.5 528.047 199.286C515.465 206.037 502.514 213 489.909 219.601C460.168 235.054 425.711 244.314 392.75 245.635C344.836 247.557 295.194 271.27 266.274 306.008C238.937 338.906 231.402 388.468 270.065 419.635C283.761 430.633 298.504 441.056 314.205 452.048C342.092 471.655 370.946 491.882 392.695 515.842C428.052 554.923 443.767 603.918 458.896 651.31C465.039 670.427 471.342 690.136 478.849 708.987C505.748 776.411 556.186 832.333 620.858 866.454C687.13 901.402 774.937 910.372 855.777 890.289C919.5 874.484 976.1 835.452 1012.32 805.475C1034.69 786.967 1059.62 777.918 1092.65 769.345C1095.8 768.542 1099.07 767.669 1102.29 766.856C1147.85 755.032 1199.52 741.684 1237.68 719.001C1276.9 695.744 1300.95 661.925 1294.95 638.625L1294.83 638.284L1295.34 638.102C1338.2 620.59 1367.59 593.122 1387.68 551.552Z" fill="#03396C"/>
</g>
<g opacity="0.7097">
<path d="M752.978 116.423C800.752 108.925 848.391 110.795 888.533 122.419C946.049 139.071 994.227 172.493 1020.62 214.111C1027.91 225.602 1032.43 236.961 1036.83 247.929C1040.9 258.076 1044.75 267.693 1050.55 277.413C1068.41 282.981 1115.38 297.641 1179.11 304.023C1234.07 309.52 1274.1 321.675 1301.55 341.094C1331.59 362.47 1351 394.963 1359.16 437.594C1361.87 451.858 1363.61 466.325 1365.34 480.381C1368.94 510.53 1372.4 538.953 1384.89 560.206L1384.99 560.396L1384.88 560.567C1361.18 602.55 1326.55 630.737 1279.05 646.82C1281.62 668.295 1256.67 698.918 1219.49 719.802C1186.37 738.456 1142.56 750.725 1103.94 761.564C1096.25 763.745 1089.01 765.755 1081.91 767.794C1056.84 775.068 1030.38 784.612 1007.09 804.909C978.852 829.525 920.774 873.205 849.485 889.375C770.182 907.318 684.575 897.026 620.529 861.78C558.54 827.701 510.093 772.544 484.156 706.562C476.909 688.08 470.799 668.752 464.914 650.006C449.756 602.002 434.143 552.375 397.783 513.297C377.513 491.518 350.917 472.889 325.148 454.849C308.699 443.359 291.723 431.489 277.154 419.189C237.55 385.859 247.493 334.172 277.762 300.353C309.162 265.225 362.267 241.842 412.987 240.764C437.915 240.241 475.206 235.826 511.563 217.793C528.377 209.454 545.717 200.209 562.444 191.318C600.46 171.074 639.71 150.173 680.811 135.094C704.334 126.472 728.7 120.234 752.978 116.423ZM1383.86 560.42C1371.41 539.057 1367.95 510.633 1364.37 480.535C1362.7 466.519 1360.96 452.001 1358.19 437.798C1350.06 395.367 1330.75 363.064 1300.86 341.768C1273.61 322.419 1233.74 310.393 1178.98 304.916C1114.91 298.486 1067.73 283.755 1050 278.167L1049.79 278.097L1049.7 277.957C1043.75 268.157 1039.89 258.491 1035.81 248.244C1031.41 237.275 1026.89 225.966 1019.62 214.526C993.319 173.098 945.361 139.795 888.056 123.213C827.668 105.727 750.371 110.464 681.328 135.835C640.358 150.893 601.108 171.794 563.149 191.978C546.365 200.929 529.017 210.124 512.203 218.463C475.593 236.587 438.041 241.043 412.982 241.586C362.661 242.653 309.932 265.875 278.696 300.771C248.658 334.349 238.775 385.564 277.989 418.545C292.55 430.794 308.78 442.165 325.91 454.165C351.679 472.204 378.341 490.823 398.692 512.692C435.14 551.91 450.834 601.627 466 649.681C471.877 668.378 477.987 687.706 485.234 706.187C511.083 772.029 559.367 827.006 621.21 861.006C685.028 896.082 770.294 906.324 849.278 888.483C920.249 872.414 978.147 828.865 1006.32 804.31C1029.8 783.882 1056.38 774.267 1081.65 766.962C1088.74 764.873 1096.05 762.853 1103.74 760.722C1142.3 749.894 1185.98 737.645 1218.97 719.061C1255.97 698.259 1280.74 667.767 1277.95 646.583L1277.89 646.232L1278.28 646.12C1325.73 630.198 1360.25 602.131 1383.86 560.42Z" fill="#03396C"/>
</g>
<g opacity="0.7419">
<path d="M770.275 117.562C818.505 109.992 866.73 112.181 907.724 124.544C966.904 142.425 1015.58 178.183 1041.28 222.631C1048.52 235.105 1052.96 247.608 1057.33 259.71C1061.39 271.04 1065.2 281.74 1071.1 292.473C1092.99 304.136 1138.5 320.105 1194.99 326.801C1231.58 331.124 1277.69 339.037 1310.29 362.27C1338.47 382.449 1356.7 414.254 1363.05 454.293C1365.33 468.779 1366.49 483.439 1367.65 497.637C1369.79 524.47 1371.77 549.89 1381.08 569.127L1381.17 569.267L1381.06 569.438C1353.78 611.673 1313.76 640.399 1262.06 654.881C1261.39 674.452 1236.29 701.143 1200.85 719.905C1172.57 734.872 1137.57 745.347 1103.77 755.428C1092.28 758.875 1081.48 762.11 1071.11 765.434C1040.69 775.293 1019.81 786.735 1001.29 803.766C955.529 845.821 897.933 876.38 843.251 887.582C765.891 903.422 682.876 891.748 621.219 856.383C562.057 822.425 515.773 768.265 490.944 703.803C483.955 685.692 478.104 666.734 472.421 648.418C457.291 599.742 441.633 549.403 404.19 510.239C385.075 490.281 360.378 473.101 336.5 456.459C318.931 444.22 300.696 431.571 285.416 418.151C267.037 402.033 258.55 380.767 260.797 356.738C262.793 335.368 273.654 312.966 290.529 295.218C324.18 259.943 380.306 237.061 433.573 236.867C472.942 236.748 505.884 230.191 534.211 216.809C554.136 207.415 574.566 196.556 594.318 186.061C627.093 168.642 660.98 150.637 696.064 137.273C720.096 128.057 745.213 121.496 770.275 117.562ZM1380.03 569.241C1370.77 549.893 1368.74 524.584 1366.59 497.701C1365.43 483.502 1364.27 468.842 1362 454.407C1355.67 414.518 1337.53 382.853 1309.51 362.805C1277.07 339.752 1231.08 331.818 1194.7 327.514C1137.94 320.809 1092.22 304.72 1070.32 293.007L1070.24 292.967L1070.16 292.877C1064.18 282.054 1060.15 270.824 1056.3 259.924C1052 247.862 1047.5 235.419 1040.33 222.935C1014.72 178.627 966.199 143.049 907.231 125.238C845.17 106.475 766.333 111.196 696.362 137.894C661.344 151.248 627.456 169.252 594.746 186.661C574.995 197.157 554.564 208.016 534.574 217.419C506.052 230.832 472.922 237.47 433.349 237.57C380.416 237.763 324.674 260.533 291.187 295.577C259.373 328.92 246.727 382.983 286.055 417.537C301.262 430.918 319.432 443.576 337.058 455.755C361.001 472.387 385.699 489.567 404.829 509.625C442.427 548.919 458.101 599.359 473.238 648.085C478.921 666.401 484.838 685.348 491.753 703.419C516.494 767.741 562.688 821.761 621.704 855.64C683.133 890.834 765.742 902.469 842.913 886.711C897.408 875.59 954.815 845.111 1000.4 803.187C1019.04 786.035 1040.03 774.523 1070.64 764.583C1081.01 761.209 1091.87 757.964 1103.31 754.577C1137.1 744.496 1172.04 734.031 1200.19 719.135C1235.51 700.444 1260.43 673.883 1260.87 654.504L1260.88 654.193L1261.27 654.081C1312.94 639.86 1352.86 611.305 1380.03 569.241Z" fill="#03396C"/>
</g>
<g opacity="0.7742">
<path d="M787.49 118.607C836.178 110.966 885.06 113.514 926.848 126.677C987.554 145.756 1036.8 183.839 1061.87 231.108C1069 244.575 1073.41 258.211 1077.68 271.356C1081.56 283.279 1085.57 295.593 1091.51 307.449C1110.16 321.881 1152.55 341.471 1210.65 349.506C1249.82 354.914 1290.03 362.726 1318.89 383.364C1352.66 407.646 1363.57 444.4 1366.81 470.959C1368.61 485.878 1369.04 500.961 1369.51 515.473C1370.24 538.83 1370.89 560.914 1377.11 577.965L1377.14 578.115L1377.02 578.236C1346.18 620.773 1300.49 650.03 1244.85 662.82C1240.82 680.195 1215.07 703.598 1181.99 719.885C1158.27 731.567 1129.65 740.527 1101.93 749.194C1087.07 753.836 1073.05 758.245 1060.02 762.962C1033.37 772.587 1013.36 784.819 995.149 802.571C952.226 844.386 892.973 875.462 836.609 885.747C834.006 886.207 831.338 886.677 828.727 887.087C755.631 898.559 678.778 885.251 621.501 850.945C592.346 833.488 566.708 811.165 545.16 784.656C524.925 759.688 508.807 731.556 497.259 701.013C490.529 683.272 484.871 664.695 479.381 646.759C464.28 597.411 448.715 546.39 410.05 507.109C391.986 488.733 368.968 472.881 346.77 457.567C328.169 444.72 308.903 431.463 293.204 417.081C253.13 380.332 268.266 324.235 302.824 290.051C342.824 250.492 406.867 237.153 453.555 232.958C460.014 232.355 466.634 231.933 473.589 231.509C500.872 229.795 529.076 227.987 556.393 215.842C578.644 205.93 601.225 193.86 623.062 182.164C651.382 167.036 680.684 151.344 710.844 139.42C735.719 129.609 761.58 122.674 787.49 118.607ZM1376.2 578.108C1370.03 560.947 1369.31 538.924 1368.59 515.566C1368.12 501.054 1367.7 486.021 1365.89 471.102C1362.75 444.684 1351.86 408.13 1318.25 383.978C1289.55 363.47 1249.47 355.638 1210.44 350.259C1152.07 342.215 1109.44 322.455 1090.72 307.983L1090.64 307.893C1084.63 295.997 1080.61 283.634 1076.73 271.661C1072.46 258.515 1068.05 244.929 1060.93 231.512C1035.88 184.393 986.857 146.43 926.363 127.421C862.558 107.339 782.188 112.095 711.354 140.11C681.258 152.024 651.949 167.666 623.694 182.783C601.857 194.48 579.211 206.56 556.895 216.482C529.398 228.758 499.799 230.631 473.707 232.26C466.752 232.684 460.197 233.097 453.738 233.7C407.189 237.924 343.464 251.162 303.701 290.529C269.374 324.473 254.313 380.198 294.071 416.637C309.696 430.979 328.963 444.235 347.491 457.043C369.762 472.396 392.787 488.299 410.917 506.665C449.663 546.036 465.243 597.157 480.352 646.555C485.842 664.491 491.5 683.068 498.222 700.759C521.985 763.539 565.968 816.674 622.14 850.331C681.262 885.734 761.401 898.681 836.498 885.045C892.602 874.802 951.675 843.857 994.483 802.162C1012.81 784.289 1032.95 772.037 1059.72 762.341C1072.75 757.624 1086.77 753.215 1101.63 748.573C1129.29 739.917 1157.91 730.957 1181.5 719.345C1219.99 700.413 1240.87 676.644 1243.95 662.602L1243.97 662.341L1244.3 662.29C1299.88 649.56 1345.47 620.475 1376.2 578.108Z" fill="#03396C"/>
</g>
<g opacity="0.8065">
<path d="M804.276 119.876C815.11 118.176 825.958 116.987 836.819 116.309C875.753 113.845 913.483 118.195 945.977 128.81C1008.14 149.098 1057.89 189.516 1082.47 239.636C1088.47 251.843 1091.53 264.561 1094.54 276.878C1098.49 293.103 1102.17 308.497 1112 322.517C1124.33 340.149 1164.53 362.394 1226.47 372.292C1263.03 378.11 1300.95 385.408 1327.56 404.548C1359.62 427.713 1368.63 462.557 1370.57 487.676C1371.77 503.409 1371.35 519.087 1370.92 534.254C1370.38 553.804 1369.87 572.271 1373.24 586.944L1373.27 587.094L1373.15 587.215C1338.18 630.709 1287.9 659.709 1227.74 670.949C1221.51 683.687 1199.19 703.78 1163.29 720.046C1144 728.775 1121.34 736.081 1099.38 743.174C1081.43 748.969 1064.44 754.461 1049.15 760.609C1025.64 770.155 1007.7 782.37 989.289 801.437C948.385 843.756 888.962 874.602 830.313 883.962C830.052 884.003 829.725 884.054 829.464 884.095C756.368 895.568 678.943 881.167 622.121 845.506C567.899 811.492 527.074 760.583 503.985 698.262C497.579 680.881 492.123 662.735 486.819 645.13C471.811 595.099 456.267 543.356 416.453 503.998C399.358 487.113 377.858 472.41 357.047 458.265C337.577 444.989 317.432 431.254 301.535 416.03C278.39 393.83 276.792 367.888 279.469 350.005C282.999 326.905 296.191 303.161 315.669 284.953C349.773 252.997 406.102 233.113 474.209 229.049C480.969 228.656 487.825 228.453 495.072 228.188C522.757 227.335 551.372 226.439 579.037 214.804C603 204.726 626.98 191.769 650.224 179.236C674.759 165.986 700.219 152.232 726.224 141.525C750.717 131.415 777.257 124.117 804.276 119.876ZM1372.38 586.977C1369.06 572.243 1369.58 553.827 1370.13 534.277C1370.55 519.11 1370.98 503.482 1369.78 487.749C1367.86 462.73 1358.87 428.036 1327.04 405.041C1300.58 386.031 1262.8 378.763 1226.3 372.934C1164.1 363.028 1123.66 340.613 1111.25 322.84C1101.41 308.72 1097.65 293.337 1093.7 277.061C1090.7 264.794 1087.63 252.076 1081.71 239.909C1057.15 189.94 1007.56 149.652 945.607 129.434C880.903 108.312 796.938 113.17 726.456 142.157C700.517 152.853 675.115 166.547 650.579 179.796C627.335 192.33 603.363 205.337 579.327 215.375C551.466 227.041 522.721 227.957 494.971 228.82C487.715 229.035 480.932 229.278 474.173 229.671C406.335 233.744 350.251 253.486 316.319 285.262C279.535 319.745 262.118 377.073 302.255 415.507C318.152 430.73 338.224 444.425 357.694 457.702C378.513 471.896 400.078 486.589 417.181 503.524C457.076 542.972 472.628 594.766 487.717 644.886C493.013 662.441 498.477 680.638 504.875 697.968C527.941 760.139 568.684 810.957 622.761 844.892C679.428 880.423 756.576 894.765 829.411 883.333C829.673 883.292 829.934 883.251 830.26 883.2C888.714 873.871 947.949 843.106 988.681 800.967C1007.2 781.78 1025.2 769.504 1048.91 759.928C1064.19 753.73 1081.18 748.238 1099.2 742.432C1121.09 735.349 1143.75 728.044 1162.98 719.375C1198.88 703.109 1221.09 683.137 1227.13 670.48L1227.24 670.309L1227.5 670.268C1287.41 659.119 1337.52 630.3 1372.38 586.977Z" fill="#03396C"/>
</g>
<g opacity="0.8387">
<path d="M820.841 121.026C870.833 113.179 921.946 116.302 965.161 130.884C1028.72 152.391 1079.03 195.135 1103.19 248.094C1109.3 261.464 1112.57 275.435 1115.68 288.915C1119.7 306.003 1123.45 322.209 1132.53 337.475C1144.9 358.337 1183.67 384.197 1242.34 395.018L1243.92 395.284C1275.66 401.088 1311.54 407.68 1336.36 425.663C1359.99 442.857 1373.54 470.826 1374.53 504.363C1374.98 521.342 1373.32 538.038 1371.64 554.171C1370.11 569.512 1368.56 583.98 1369.49 595.853L1369.51 595.953L1369.46 596.063C1331.14 639.518 1275.56 668.837 1212.58 678.722C1211.99 678.814 1211.4 678.906 1210.81 678.999C1202.41 688.946 1180.09 705.648 1144.71 720.137C1129.89 726.214 1112.89 731.706 1096.48 737.055C1076.37 743.6 1055.63 750.348 1038.41 758.188C1013.25 769.634 997.174 785.203 983.485 800.242C946.149 841.437 887.256 872.251 828.778 881.429C827.212 881.675 825.646 881.921 824.006 882.127C752.778 891.869 677.553 876.147 622.739 840.068C571.498 806.305 532.698 756.362 510.636 695.472C504.489 678.462 499.226 660.696 494.115 643.471C479.136 592.769 463.677 540.293 422.657 500.919C406.435 485.335 386.249 471.761 366.672 458.655C346.485 445.081 325.56 431.057 309.529 414.981C291.512 396.906 284.158 372.638 288.772 346.645C293.032 322.66 307.402 298.32 328.103 279.817C347.576 262.432 373.125 248.818 403.874 239.37C430.99 231.056 462.318 226.139 494.397 225.162C501.514 224.918 508.67 224.924 516.226 224.92C544.306 224.878 573.323 224.843 601.294 213.879C626.487 203.967 651.237 190.376 675.25 177.209C696.549 165.494 718.592 153.406 741.086 143.764C766.399 132.909 793.43 125.328 820.841 121.026ZM1368.61 595.785C1367.74 583.853 1369.22 569.395 1370.76 554.104C1372.44 537.97 1374.11 521.325 1373.66 504.396C1372.7 471.01 1359.25 443.231 1335.76 426.116C1311.09 408.263 1275.28 401.661 1243.67 395.836L1242.16 395.56C1183.22 384.73 1144.3 358.74 1131.84 337.738C1122.75 322.422 1118.82 305.474 1114.97 289.078C1111.86 275.598 1108.6 261.677 1102.5 248.357C1078.43 195.538 1028.27 152.924 964.856 131.497C898.253 108.927 812.698 113.881 741.564 144.254C719.128 153.836 697.093 165.974 675.786 177.638C651.772 190.806 626.965 204.457 601.772 214.369C573.613 225.414 544.466 225.469 516.313 225.471C508.757 225.476 501.6 225.469 494.548 225.703C454.081 226.919 378.677 235.621 328.819 280.116C289.701 315.068 269.87 374.059 310.257 414.508C326.215 430.544 347.075 444.577 367.253 458.102C386.839 471.257 407.025 484.832 423.32 500.455C464.429 539.969 479.887 592.445 494.883 643.248C499.986 660.423 505.191 678.249 511.395 695.199C533.434 755.939 572.096 805.851 623.256 839.525C677.923 875.524 752.937 891.176 823.904 881.475C825.478 881.28 827.045 881.034 828.611 880.788C886.892 871.641 945.597 840.907 982.826 799.883C996.565 784.733 1012.71 769.154 1037.99 757.637C1055.27 749.737 1076.08 742.979 1096.18 736.434C1112.59 731.085 1129.52 725.603 1144.35 719.527C1179.73 705.088 1201.99 688.396 1210.27 678.519L1210.38 678.398L1210.58 678.368C1211.23 678.265 1211.82 678.173 1212.47 678.071C1275 668.257 1330.4 639.069 1368.61 595.785Z" fill="#03396C"/>
</g>
<g opacity="0.871">
<path d="M837.839 121.954C888.224 114.046 940.068 117.567 984.288 133.019C1049.24 155.695 1100.11 200.764 1123.78 256.573C1129.96 271.217 1133.42 286.441 1136.74 301.174C1140.57 318.343 1144.56 336.103 1152.93 352.404C1164.39 374.693 1198.8 405.192 1258.07 417.666C1260.76 418.219 1263.47 418.822 1266.23 419.364C1294.49 425.199 1323.8 431.282 1344.95 446.709C1375.1 468.837 1378.75 502.726 1378.2 520.942C1377.69 539.87 1373.85 558.859 1370.46 575.62C1368.37 586.119 1366.32 596.095 1365.46 604.653L1365.47 604.754L1365.42 604.814C1322.5 649.658 1261.47 678.754 1193.66 686.879C1178.85 697.78 1153.52 710.18 1125.85 720.12C1115.66 723.774 1104.9 727.209 1093.56 730.837C1070.38 738.225 1046.44 745.886 1027.39 755.707C1005.55 766.992 991.854 781.982 977.477 799.03C943.128 839.653 886.587 869.687 828.044 878.876C824.585 879.418 821.053 879.921 817.57 880.314C783.339 884.197 747.357 882.038 713.666 874.024C680.325 866.109 649.03 852.481 623.22 834.602C574.911 801.2 538.249 752.103 517.157 692.704C511.269 676.064 506.199 658.678 501.347 641.824C486.453 590.389 471.088 537.23 428.854 497.791C413.416 483.368 394.39 470.792 376.03 458.626C355.209 444.843 333.714 430.6 317.711 413.853C299.78 395.045 292.896 369.932 298.321 343.145C303.385 318.314 318.858 293.339 340.792 274.592C380.303 240.862 443.721 221.407 514.903 221.174C522.386 221.13 529.778 221.356 537.699 221.551C566.109 222.33 595.455 223.117 623.862 212.804C649.86 203.33 674.931 189.227 699.215 175.657C717.712 165.255 736.829 154.551 756.326 145.841C781.944 134.374 809.645 126.379 837.839 121.954ZM1364.79 604.656C1365.71 596.037 1367.7 586.121 1369.8 575.673C1373.2 558.962 1376.97 539.983 1377.49 521.105C1377.98 502.949 1374.36 469.21 1344.43 447.252C1323.36 431.865 1294.2 425.862 1266 420.017C1263.24 419.474 1260.53 418.871 1257.84 418.318C1232.11 412.906 1208.41 403.375 1189.26 390.82C1172.25 379.622 1159.1 366.125 1152.26 352.767C1143.86 336.366 1139.87 318.606 1135.97 301.397C1132.65 286.664 1129.26 271.429 1123.02 256.846C1099.37 201.137 1048.65 156.249 983.845 133.603C915.139 109.565 827.97 114.464 756.413 146.393C736.973 155.042 717.863 165.797 699.359 176.148C675.082 189.768 649.947 203.882 623.884 213.365C595.362 223.799 565.877 222.983 537.394 222.164C529.538 221.959 522.081 221.742 514.664 221.777C443.75 222.019 380.455 241.403 341.124 275.002C299.082 310.926 278.992 372.526 318.071 413.591C334.009 430.349 355.496 444.541 376.317 458.324C394.742 470.48 413.769 483.056 429.214 497.529C471.529 537.058 486.968 590.257 501.869 641.742C506.714 658.546 511.791 675.982 517.671 692.572C538.683 751.881 575.329 800.877 623.499 834.25C676.013 870.587 748.5 887.611 817.296 879.844C820.779 879.451 824.245 878.958 827.77 878.405C886.116 869.247 942.478 839.344 976.712 798.842C991.147 781.733 1004.9 766.684 1026.87 755.378C1045.98 745.496 1069.99 737.875 1093.18 730.488C1104.57 726.849 1115.27 723.424 1125.46 719.77C1153.13 709.83 1178.4 697.441 1193.16 686.65L1193.21 686.59L1193.35 686.57C1261.14 678.394 1321.99 649.379 1364.79 604.656Z" fill="#03396C"/>
</g>
<g opacity="0.9032">
<path d="M854.33 123.06C865.36 121.329 876.476 120.149 887.744 119.511C928.78 117.23 968.754 122.666 1003.41 135.1C1037.43 147.375 1067.3 165.542 1092.21 189.212C1115.32 211.162 1133.34 237.351 1144.37 265.048C1150.68 280.955 1154.22 297.553 1157.68 313.599C1161.56 331.53 1165.54 350.062 1173.34 367.379C1185.25 393.809 1217.92 426.891 1273.88 440.399C1278.12 441.428 1282.49 442.436 1286.72 443.416C1310.72 448.894 1335.62 454.589 1353.62 467.89C1374.36 483.279 1384.7 508.671 1382.03 537.696C1379.94 559.749 1372.38 581.839 1366.33 599.532C1364.63 604.522 1362.97 609.252 1361.58 613.629L1361.53 613.74C1337.91 636.655 1309.43 655.404 1277 669.482C1245.31 683.186 1211.55 691.772 1176.6 694.946C1159.12 702.876 1134.45 711.834 1107.14 720.178C1102.29 721.658 1097.37 723.098 1092.19 724.63C1066.57 732.246 1037.49 740.867 1016.44 753.262C997.7 764.266 986.288 778.897 974.145 794.413C973.25 795.529 972.363 796.696 971.468 797.812C937.528 841.042 874.555 872.702 811.117 878.396C777.747 881.374 742.837 878.379 710.169 869.639C678.201 861.098 648.31 847.043 623.69 829.08C599.979 811.796 579.242 790.45 561.988 765.732C546.198 743.096 533.358 717.532 523.726 689.821C518.096 673.551 513.286 656.535 508.562 640.072C493.754 587.904 478.474 534.013 434.968 494.568C420.234 481.216 402.294 469.6 385.013 458.342C363.647 444.491 341.598 430.13 325.754 412.69C307.966 393.089 301.559 367.183 307.738 339.66C313.54 313.995 330.183 288.374 353.341 269.332C395.825 234.519 462.117 215.486 535.197 217.112C543.045 217.267 551.145 217.742 559.032 218.148C587.763 219.699 617.513 221.346 646.218 211.654C672.71 202.771 697.667 188.376 721.832 174.466C737.836 165.226 754.395 155.694 771.287 147.855C796.792 136.097 825.026 127.66 854.33 123.06ZM1360.96 613.521C1362.35 609.143 1363.95 604.424 1365.71 599.474C1372.09 580.857 1379.34 559.741 1381.44 537.738C1384.13 508.863 1373.87 483.561 1353.22 468.313C1335.3 455.102 1310.54 449.436 1286.54 443.958C1282.3 442.979 1277.87 441.98 1273.69 440.941C1217.59 427.353 1184.84 394.181 1172.85 367.661C1165.04 350.295 1161 331.773 1157.17 313.781C1153.72 297.735 1150.17 281.137 1143.87 265.28C1120.64 206.731 1069.36 159.467 1003.22 135.592C932.261 110.007 843.56 114.941 771.643 148.416C754.75 156.254 738.256 165.777 722.187 175.027C698.023 188.937 673 203.342 646.443 212.235C617.599 221.898 587.793 220.31 558.988 218.72C551.101 218.314 543.001 217.839 535.153 217.684C462.204 216.037 396.099 234.99 353.804 269.721C309.485 306.054 287.12 369.346 326.318 412.447C342.162 429.887 364.203 444.198 385.496 458.01C402.842 469.257 420.79 480.923 435.532 494.325C479.111 533.811 494.406 587.802 509.222 640.019C513.881 656.493 518.691 673.508 524.313 689.729C544.379 747.696 578.943 795.787 624.108 828.758C674.492 865.583 744.444 883.93 811.046 877.945C874.28 872.231 937.073 840.702 970.899 797.593C971.794 796.477 972.681 795.311 973.575 794.194C985.718 778.678 997.188 763.987 1016.05 752.913C1037.16 740.457 1066.3 731.826 1091.92 724.209C1097.1 722.678 1102.02 721.238 1106.86 719.707C1134.18 711.363 1158.85 702.406 1176.26 694.485L1176.33 694.475L1176.4 694.465C1247.21 688.075 1314.47 658.567 1360.96 613.521Z" fill="#03396C"/>
</g>
<g opacity="0.9355">
<path d="M870.805 124.07C881.9 122.329 893.22 121.168 904.626 120.559C946.347 118.376 987.117 124.201 1022.54 137.284C1057.19 150.129 1087.46 169.158 1112.6 193.869C1136.01 216.902 1154.12 244.465 1164.97 273.576C1171.42 290.797 1175.11 308.808 1178.65 326.229C1182.51 344.882 1186.48 364.187 1193.75 382.407C1209.11 420.571 1244.95 450.794 1289.62 463.196C1294.86 464.633 1300.37 466.029 1305.72 467.345C1326.05 472.424 1347 477.662 1362.29 489.026C1372.52 496.665 1379.71 506.732 1383.64 518.955C1387.15 529.806 1387.87 542.07 1385.78 554.364C1381.13 581.39 1370.86 606.268 1357.56 622.529C1338.45 646.022 1309.72 664.09 1269.87 677.791C1233.9 690.165 1194.02 697.246 1159.46 702.876C1146.68 704.984 1131.97 708.833 1115.02 713.292C1106.48 715.556 1097.68 717.862 1088.28 720.16C1059.63 727.224 1027.29 735.946 1005.41 750.781C990.301 761.011 981.295 773.929 971.803 787.591C969.79 790.526 967.661 793.582 965.46 796.598C949.687 818.385 925.933 837.469 896.884 851.787C868.268 865.882 836.374 874.432 804.672 876.532C771.648 878.736 738.684 874.922 706.754 865.348C676.224 856.17 647.68 841.75 624.242 823.653C581.401 790.574 549.784 744.64 530.319 687.091C524.948 671.192 520.331 654.557 515.866 638.463C501.216 585.604 486.015 530.93 441.245 491.528C427.198 479.147 410.257 468.35 393.843 457.933C372.077 444.092 349.564 429.753 333.886 411.67C316.241 391.277 310.304 364.526 317.245 336.32C323.785 309.819 341.524 283.513 365.922 264.276C389.485 245.683 419.135 231.785 454.063 222.965C485.717 215.018 520.833 211.663 555.522 213.255C563.744 213.659 572.209 214.334 580.397 214.949C609.45 217.271 639.513 219.64 668.548 210.769C695.288 202.617 719.75 188.044 743.426 174.005C757.313 165.765 771.625 157.253 786.288 150.123C812.01 137.612 840.783 128.782 870.805 124.07ZM826.377 873.793C883.745 864.789 936.686 835.679 965.037 796.459C967.238 793.443 969.309 790.448 971.388 787.502C980.937 773.78 989.943 760.862 1005.18 750.561C1027.12 735.716 1059.58 726.923 1088.23 719.859C1097.63 717.561 1106.43 715.256 1114.91 713.001C1131.93 708.532 1146.56 704.643 1159.41 702.575C1236.74 689.925 1315.66 673.378 1357.21 622.38C1370.44 606.129 1380.73 581.351 1385.32 554.385C1389.81 528.002 1381.11 503.688 1361.94 489.388C1346.73 478.064 1325.84 472.816 1305.59 467.777C1300.23 466.461 1294.73 465.064 1289.49 463.627C1265.37 456.936 1244.4 445.641 1227.03 429.981C1212 416.419 1200.34 400.068 1193.31 382.579C1185.97 364.319 1182 345.014 1178.2 326.351C1174.6 308.94 1170.9 290.929 1164.53 273.748C1141.65 212.32 1089.86 162.721 1022.33 137.676C950.049 110.862 857.557 115.929 786.62 150.534C772.022 157.652 757.645 166.175 743.823 174.404C720.09 188.504 695.62 203.027 668.757 211.249C639.592 220.141 609.463 217.782 580.345 215.47C572.149 214.805 563.685 214.131 555.471 213.777C480.625 210.27 411.645 228.801 366.246 264.636C319.782 301.357 295.068 366.302 334.262 411.509C349.866 429.552 372.372 443.841 394.137 457.681C410.551 468.099 427.493 478.896 441.613 491.317C486.456 530.758 501.665 585.482 516.396 638.432C520.861 654.525 525.47 671.11 530.841 687.01C550.298 744.508 581.843 790.402 624.611 823.441C672.929 860.744 740.298 880.524 804.698 876.271C811.971 875.746 819.198 874.919 826.377 873.793Z" fill="#03396C"/>
</g>
<g opacity="0.9677">
<path d="M887.133 125.004C898.358 123.243 909.809 122.062 921.427 121.522C963.904 119.477 1005.46 125.64 1041.6 139.433C1076.81 152.859 1107.55 172.738 1132.93 198.542C1156.64 222.657 1174.82 251.543 1185.49 282.07C1192.02 300.664 1195.82 320.15 1199.5 338.934C1203.28 358.319 1207.23 378.346 1214.09 397.401C1223.18 422.476 1247.07 467.312 1305.3 485.957C1311.14 487.814 1317.42 489.498 1323.44 491.174C1340.41 495.802 1358.01 500.539 1370.83 510.236C1380.09 517.257 1386.62 526.914 1389.72 538.138C1392.55 548.479 1392.46 559.843 1389.48 571.097C1383.77 592.69 1370.71 614.718 1353.62 631.474C1329.74 654.892 1297.53 673.763 1257.9 687.584C1223.66 699.481 1184.84 707.371 1142.34 711.011C1115.36 713.346 1092.15 716.32 1069.51 720.336C1035.68 726.365 1010.42 735.825 994.479 748.445C982.043 758.255 974.941 770.103 967.42 782.685C964.87 786.886 962.277 791.248 959.466 795.49C944.709 817.784 921.19 837.089 891.546 851.448C862.645 865.434 830.339 873.484 798.184 874.833C766.029 876.182 734.08 871.592 703.157 861.192C674.073 851.428 646.933 836.582 624.606 818.31C584.859 785.773 555.315 740.695 536.715 684.398C531.603 668.868 527.187 652.664 522.981 636.941C508.409 583.298 493.416 527.821 447.252 488.485C433.811 476.984 417.737 467.027 402.175 457.349C380.017 443.57 357.121 429.342 341.748 410.647C324.238 389.41 318.836 361.806 326.539 332.914C330.145 319.252 336.48 305.931 345.323 293.245C354.279 280.437 365.389 268.987 378.29 259.155C403.193 240.147 434.229 226.134 470.598 217.55C503.743 209.728 540.079 206.901 575.708 209.372C584.296 209.976 593.134 210.9 601.696 211.765C631.055 214.758 661.44 217.898 690.796 209.798C717.597 202.459 741.252 187.858 764.186 173.781C776.136 166.41 788.52 158.817 801.207 152.306C827.152 139.092 856.328 129.839 887.133 125.004ZM1180.94 705.98C1255.21 694.323 1315.53 668.318 1353.38 631.254C1370.41 614.509 1383.49 592.58 1389.2 571.038C1395.55 547.135 1388.43 523.909 1370.67 510.467C1357.92 500.81 1340.39 496.063 1323.42 491.485C1317.41 489.859 1311.13 488.175 1305.28 486.268C1282.25 478.891 1262.26 466.52 1245.95 449.562C1231.97 435.015 1220.91 416.977 1213.85 397.542C1206.98 378.487 1203.03 358.41 1199.25 339.025C1195.56 320.191 1191.7 300.765 1185.24 282.161C1162.71 217.852 1110.36 165.928 1041.51 139.705C966.682 111.184 872.519 116.256 801.653 152.596C788.966 159.107 776.648 166.689 764.698 174.06C741.771 188.187 718.051 202.798 691.185 210.148C661.691 218.218 631.248 215.138 601.816 212.105C593.255 211.241 584.416 210.317 575.829 209.713C500.039 204.455 426.381 223 378.786 259.334C323.285 301.531 307.284 367.881 342.312 410.404C357.669 428.999 380.565 443.227 402.658 457.016C418.22 466.694 434.302 476.702 447.743 488.202C493.914 527.589 508.981 583.106 523.56 636.798C527.832 652.511 532.182 668.726 537.36 684.245C555.886 740.502 585.423 785.53 625.096 818.028C672.064 856.52 735.206 877.065 798.325 874.451C864.965 871.695 929.659 839.92 959.173 795.33C961.985 791.088 964.577 786.727 967.128 782.526C974.649 769.944 981.807 758.035 994.302 748.165C1010.37 735.474 1035.69 726.004 1069.58 719.915C1092.28 715.839 1115.48 712.864 1142.48 710.579C1155.61 709.493 1168.48 707.936 1180.94 705.98Z" fill="#03396C"/>
</g>
<path d="M903.391 125.896C914.747 124.113 926.401 122.952 938.223 122.432C959.535 121.449 980.916 122.613 1001.69 125.875C1022.53 129.126 1042.42 134.427 1060.79 141.559C1096.63 155.554 1127.77 176.294 1153.39 203.191C1177.4 228.387 1195.65 258.598 1206.22 290.579C1212.84 310.597 1216.74 331.557 1220.58 351.805C1224.33 371.863 1228.26 392.612 1234.71 412.4C1245.63 445.764 1269.49 489.577 1321.24 508.725C1327.42 510.992 1334.01 512.936 1340.46 514.851C1354.48 518.967 1369.07 523.252 1379.7 531.392C1388.22 537.914 1393.9 546.832 1396.14 557.266C1398.27 567.048 1397.33 577.622 1393.51 587.825C1386.97 604.978 1372.75 622.156 1349.93 640.374C1320.69 663.709 1284.77 683.215 1246.11 696.782C1207.38 710.358 1165.72 718.027 1125.55 719.041C1116.69 719.251 1107.72 719.17 1099.08 719.088C1083.34 718.939 1067.06 718.771 1051 720.419C1022.17 723.351 998.264 732.497 983.744 746.075C973.534 755.586 967.746 767.28 962.107 778.643C959.518 783.877 956.822 789.282 953.744 794.387C940.061 817.129 916.858 836.744 886.611 851.095C857.794 864.76 824.242 872.543 792.092 873.069C760.741 873.573 729.798 868.158 700.029 857.012C672.456 846.651 646.664 831.439 625.437 812.943C605.842 795.886 588.768 775.301 574.711 751.776C562.381 731.165 551.926 707.589 543.645 681.668C538.8 666.559 534.643 650.725 530.572 635.443C516.144 581.008 501.293 524.738 453.809 485.506C440.901 474.846 425.671 465.578 410.895 456.65C388.427 443.022 365.285 428.936 350.233 409.728C332.931 387.688 328.063 359.229 336.528 329.653C340.545 315.618 347.289 301.925 356.63 289.006C366.078 275.917 377.743 264.173 391.289 254.189C404.59 244.347 419.824 235.741 436.5 228.656C452.351 221.854 469.613 216.371 487.771 212.34C522.407 204.644 560.028 202.334 596.525 205.645C605.543 206.438 614.755 207.611 623.617 208.686C649.739 211.93 676.675 215.252 702.976 211.124C706.566 210.56 710.132 209.847 713.674 208.983C740.348 202.536 762.951 188.049 784.76 174.046C795.092 167.443 805.719 160.588 816.691 154.654C842.226 140.529 871.803 130.853 903.391 125.896ZM1175.07 714.145C1239.75 703.994 1302.43 677.721 1349.56 640.125C1372.32 621.966 1386.54 604.789 1393.02 587.697C1401.16 566.236 1395.82 544.167 1379.33 531.554C1368.69 523.414 1354.25 519.158 1340.22 515.042C1333.85 513.167 1327.19 511.233 1321.01 508.916C1299.07 500.804 1280.18 487.385 1264.87 469.091C1251.7 453.337 1241.42 434.303 1234.31 412.461C1227.86 392.623 1223.94 371.924 1220.19 351.866C1216.41 331.608 1212.45 310.659 1205.83 290.641C1183.65 223.452 1130.67 169.213 1060.56 141.8C984.188 111.93 886.096 117.106 816.568 154.725C805.596 160.658 794.969 167.514 784.637 174.117C762.77 188.18 740.168 202.667 713.429 209.124C709.887 209.988 706.255 210.712 702.666 211.275C676.234 215.424 649.298 212.102 623.176 208.857C614.306 207.733 605.102 206.61 596.084 205.817C518.471 198.739 441.872 216.873 391.166 254.26C333.388 296.866 315.404 365.068 350.194 409.477C365.237 428.635 388.38 442.722 410.775 456.309C425.55 465.238 440.781 474.506 453.696 485.215C475.057 502.868 491.647 525.482 504.533 554.326C515.994 580.055 523.407 608.115 530.614 635.282C534.684 650.565 538.841 666.399 543.687 681.508C561.555 737.406 588.283 780.307 625.39 812.643C670.324 851.813 730.932 873.681 791.768 872.709C802.438 872.524 813.056 871.576 823.498 869.937C879.561 861.138 930.325 832.216 953.118 794.228C956.195 789.123 958.891 783.718 961.48 778.484C967.119 767.122 972.973 755.418 983.175 745.856C990.992 738.569 1001.29 732.587 1013.82 728.103C1024.84 724.165 1037.2 721.507 1050.69 720.109C1066.75 718.461 1083.02 718.629 1098.83 718.768C1107.53 718.84 1116.5 718.92 1125.3 718.721C1141.95 718.316 1158.56 716.737 1175.07 714.145Z" fill="#03396C"/>
</g>
</svg>
